<svg width="45" height="45" viewBox="0 0 45 45" fill="none" xmlns="http://www.w3.org/2000/svg">
<path fill-rule="evenodd" clip-rule="evenodd" d="M20.4014 4.37259C11.2679 5.89441 4.32918 13.4301 4.32918 22.5C4.32918 32.6661 13.0515 40.909 23.8088 40.909C30.687 40.909 36.7346 37.5422 40.2026 32.4451C39.0943 32.6332 37.9556 32.7272 36.7956 32.7272C26.0383 32.7272 17.316 24.4843 17.316 14.3182C17.316 10.6569 18.4503 7.24079 20.4022 4.37307L20.4014 4.37259ZM0.00037178 22.5C0.00037178 10.0718 10.6581 0 23.8088 0C25.0945 0 26.0336 0.789416 26.3931 1.6934C26.7395 2.57321 26.6008 3.66942 25.796 4.47124C23.22 7.04033 21.6445 10.5012 21.6445 14.3182C21.6445 22.226 28.4276 28.6363 36.7953 28.6363C37.8862 28.6363 38.9468 28.5258 39.9685 28.3213C41.4922 28.0145 42.9856 28.53 43.9335 29.4668C44.938 30.4567 45.44 32.0766 44.5051 33.6272C40.4145 40.4141 32.6787 45 23.8084 45C10.6575 45 0 34.928 0 22.5L0.00037178 22.5Z" fill="white"/>
</svg>
