<svg width="50" height="50" viewBox="0 0 50 50" fill="none" xmlns="http://www.w3.org/2000/svg">
<path fill-rule="evenodd" clip-rule="evenodd" d="M25 15.0002C19.4771 15.0002 15.0002 19.4771 15.0002 25C15.0002 30.5229 19.4771 34.9999 25 34.9999C30.5229 34.9999 34.9999 30.5229 34.9999 25C34.9999 19.4771 30.5229 15.0002 25 15.0002V15.0002ZM10 25C10 16.7157 16.7157 10 25 10C33.2843 10 40 16.7157 40 25C40 33.2843 33.2843 40 25 40C16.7157 40 10 33.2843 10 25Z" fill="#FFBB52"/>
<path fill-rule="evenodd" clip-rule="evenodd" d="M27.4997 2.49986V4.99972C27.4997 6.38047 26.3806 7.50001 24.9999 7.50001C23.6191 7.50001 22.5 6.38047 22.5 4.99972V2.49986C22.5 1.11911 23.6191 0 24.9999 0C26.3806 0 27.4997 1.11911 27.4997 2.49986Z" fill="#FFBB52"/>
<path fill-rule="evenodd" clip-rule="evenodd" d="M10.8579 7.32216L12.6253 9.09002C13.6017 10.0664 13.6017 11.6493 12.6253 12.6253C11.6493 13.6017 10.0664 13.6017 9.09002 12.6253L7.32216 10.8579C6.34574 9.88146 6.34574 8.29856 7.32216 7.32216C8.29859 6.34574 9.88149 6.34574 10.8579 7.32216V7.32216Z" fill="#FFBB52"/>
<path fill-rule="evenodd" clip-rule="evenodd" d="M42.678 10.8579L40.9102 12.6253C39.9338 13.6017 38.3509 13.6017 37.3749 12.6253C36.3985 11.6493 36.3985 10.0664 37.3749 9.09002L39.1428 7.32216C40.1188 6.34574 41.7017 6.34574 42.678 7.32216C43.6545 8.29859 43.6545 9.88149 42.678 10.8579Z" fill="#FFBB52"/>
<path fill-rule="evenodd" clip-rule="evenodd" d="M27.4997 45.0003V47.5002C27.4997 48.8809 26.3806 50 24.9999 50C23.6191 50 22.5 48.8809 22.5 47.5002V45.0003C22.5 43.6195 23.6191 42.5 24.9999 42.5C26.3806 42.5 27.4997 43.6195 27.4997 45.0003V45.0003Z" fill="#FFBB52"/>
<path fill-rule="evenodd" clip-rule="evenodd" d="M40.9102 37.3736L42.678 39.1419C43.6545 40.1179 43.6545 41.7008 42.678 42.6772C41.7016 43.6536 40.1187 43.6536 39.1428 42.6772L37.3749 40.9093C36.3985 39.9329 36.3985 38.35 37.3749 37.3736C38.3509 36.3976 39.9338 36.3976 40.9102 37.3736Z" fill="#FFBB52"/>
<path fill-rule="evenodd" clip-rule="evenodd" d="M12.6253 40.9093L10.8579 42.6772C9.88146 43.6536 8.29856 43.6536 7.32216 42.6772C6.34574 41.7008 6.34574 40.1179 7.32216 39.1419L9.09002 37.3736C10.0665 36.3976 11.6493 36.3976 12.6253 37.3736C13.6017 38.35 13.6017 39.9329 12.6253 40.9093Z" fill="#FFBB52"/>
<path fill-rule="evenodd" clip-rule="evenodd" d="M47.5002 27.4997H45.0003C43.6195 27.4997 42.5 26.3806 42.5 24.9999C42.5 23.6191 43.6195 22.5 45.0003 22.5H47.5002C48.8809 22.5 50 23.6191 50 24.9999C50 26.3806 48.8809 27.4997 47.5002 27.4997Z" fill="#FFBB52"/>
<path fill-rule="evenodd" clip-rule="evenodd" d="M4.99972 27.4997H2.49986C1.11911 27.4997 0 26.3806 0 24.9999C0 23.6191 1.11911 22.5 2.49986 22.5H4.99972C6.38047 22.5 7.50001 23.6191 7.50001 24.9999C7.50001 26.3806 6.38047 27.4997 4.99972 27.4997V27.4997Z" fill="#FFBB52"/>
</svg>
