<svg width="323" height="296" viewBox="0 0 323 296" fill="none" xmlns="http://www.w3.org/2000/svg">
<path d="M321.496 223.213C315.197 249.39 296.042 271.168 272.778 282.893C265.555 286.529 258.151 289.873 250.6 292.891C247.891 293.964 245.183 295.018 242.439 296H79.5156C77.1211 295.018 74.7449 294 72.389 292.927C46.2679 281.148 22.5082 263.496 8.47238 239.664C4.21557 232.429 0.717645 224.54 0.0913727 216.268C-0.536742 208.015 2.06046 199.326 8.28634 194.272C15.8403 188.146 26.8535 188.492 35.4555 183.911C45.4759 178.566 50.9116 167.205 53.4148 155.861C55.9033 144.518 56.0507 132.647 58.6663 121.34C62.1458 106.27 70.0663 92.4909 81.1734 82.2018C93.9383 70.3313 112.874 63.1689 129.47 70.0768C140.89 74.8396 149.106 85.2013 157.523 94.5269C165.943 103.834 176.183 113.033 188.34 113.923C197.163 114.578 205.433 110.706 213.446 107.288C223.171 103.144 233.394 99.5078 244.096 99.6532C254.818 99.7987 266.163 104.38 272.297 113.578C278.322 122.613 278.339 134.047 278.93 144.736C279.538 155.425 281.562 167.314 289.908 174.169C296.611 179.675 305.933 180.62 312.802 185.892C323.872 194.345 324.407 211.088 321.496 223.213Z" fill="#FFECEC"/>
<path d="M257.052 296H77.5996L82.468 271.837C87.6163 246.269 111.728 227.726 139.831 227.726H194.823C222.926 227.726 247.038 246.269 252.186 271.837L257.052 296Z" fill="#FFD0BE"/>
<path d="M193.519 233.163C193.519 233.163 191.087 239.455 167.326 239.455C143.568 239.455 141.135 233.163 141.135 233.163V190.045H193.519V233.163Z" fill="#FFD0BE"/>
<path d="M193.519 212.909C193.519 212.909 184.902 222.625 167.326 222.625C149.752 222.625 141.135 212.909 141.135 212.909V190.046H193.519V212.909Z" fill="#D8225C"/>
<path d="M252.186 271.837C247.336 247.759 225.671 229.919 199.693 227.921C199.492 229.762 199.203 231.6 198.8 233.422C197.299 240.177 194.202 246.892 189.019 251.671C183.624 256.648 176.424 258.859 169.105 258.519C160.207 258.101 151.929 254.311 146.14 247.585C143.338 244.333 141.159 240.64 139.523 236.696C138.385 233.951 137.339 230.813 137.374 227.777C110.332 228.823 87.4652 247.016 82.4661 271.837L77.5996 296H257.052L252.186 271.837Z" fill="#FF9CAC"/>
<g opacity="0.380005">
<g opacity="0.380005">
<path opacity="0.380005" d="M220.855 240.138C224.953 253.767 226.602 268.035 228.26 282.112C228.803 286.737 229.335 291.365 229.8 295.999H257.055L252.191 271.836C248.549 253.761 235.432 239.204 218.129 232.223C219.148 234.817 220.05 237.461 220.855 240.138Z" fill="#FF9CAC"/>
</g>
<g opacity="0.380005">
<path opacity="0.380005" d="M105.13 264.168C106.5 256.934 108.252 249.763 110.652 242.793C111.783 239.512 113.06 236.278 114.473 233.104C98.1931 240.385 85.9643 254.488 82.47 271.837L77.6035 296H100.833C101.667 285.322 103.137 274.686 105.13 264.168Z" fill="#FF9CAC"/>
</g>
</g>
<path d="M150.502 13.6662C149.294 8.39447 145.059 4.18615 140.145 2.07198C135.232 -0.0439911 129.715 -0.296677 124.405 0.245041C102.273 2.49736 82.2364 19.1871 75.7563 40.765C74.6511 44.4443 73.9088 48.3327 74.5038 52.1302C75.6311 59.3253 81.7188 65.1733 88.7036 66.8748C93.909 68.1418 98.9837 66.8439 103.939 65.2096C114.55 61.7048 124.683 57.2184 133.156 49.6906C138.124 45.2787 142.342 40.0033 145.589 34.1716C148.99 28.0673 152.143 20.814 150.502 13.6662Z" fill="black"/>
<path d="M77.5831 153.545C72.374 146.721 69.4102 138.321 70.1304 130.011C70.4601 126.223 71.5469 122.371 74.0888 119.453C79.9647 112.707 87.5426 115.788 92.4626 121.649C100.873 131.665 105.474 144.47 104.152 157.272C103.684 161.802 101.435 166.73 95.8021 166.281C93.6322 166.107 91.6005 165.183 89.718 164.13C85.0247 161.504 80.8599 157.835 77.5831 153.545Z" fill="#FFD0BE"/>
<g opacity="0.410004">
<g opacity="0.410004">
<path opacity="0.410004" d="M77.3892 124.245C87.8333 128.812 95.4443 137.037 99.913 147.316C101.462 150.886 102.882 155.041 103.794 159.364C103.956 158.67 104.076 157.968 104.148 157.272C105.47 144.471 100.869 131.666 92.4603 121.649C87.5404 115.79 79.9606 112.707 74.0847 119.453C73.2098 120.457 72.5172 121.577 71.9609 122.762C73.8213 122.925 75.7591 123.533 77.3892 124.245Z" fill="#FFD0BE"/>
</g>
</g>
<path d="M93.0402 142.851C92.6184 141.293 92.0326 139.786 91.3548 138.319C90.0801 135.558 88.3247 132.889 86.0315 130.846C83.9132 128.957 80.8279 126.919 77.8402 127.892C75.453 128.668 73.8247 131.806 76.0222 133.713C76.4421 134.076 77.2102 133.593 76.8474 133.084C76.1272 132.075 76.4514 130.722 77.5418 130.12C78.5862 129.542 79.8332 129.679 80.9053 130.093C82.3217 130.644 83.5872 131.627 84.6997 132.736C83.1893 134.905 82.342 137.468 82.3125 140.121C82.2757 143.189 83.2777 146.518 85.4457 148.786C85.8933 149.253 86.5914 148.659 86.317 148.123C85.6428 146.814 85.035 145.596 84.6629 144.172C84.3129 142.827 84.0679 141.518 84.0919 140.121C84.1306 137.917 84.7531 135.799 85.7276 133.838C85.9504 134.1 86.1862 134.36 86.3907 134.623C87.8477 136.503 88.9455 138.652 89.8462 140.839C90.3307 142.022 90.8225 143.216 91.2553 144.42C91.7121 145.69 92.0455 147.037 92.7252 148.212C93.1047 148.868 94.2375 148.603 94.2007 147.817C94.1178 146.125 93.4804 144.48 93.0402 142.851Z" fill="#D8225C"/>
<path d="M255.336 153.545C260.545 146.721 263.509 138.321 262.789 130.011C262.459 126.223 261.372 122.371 258.83 119.453C252.954 112.707 245.377 115.788 240.457 121.649C232.046 131.665 227.445 144.47 228.767 157.272C229.237 161.802 231.484 166.73 237.117 166.281C239.289 166.107 241.321 165.183 243.201 164.13C247.895 161.504 252.059 157.835 255.336 153.545Z" fill="#FFD0BE"/>
<g opacity="0.410004">
<g opacity="0.410004">
<path opacity="0.410004" d="M255.34 153.545C260.549 146.721 263.513 138.321 262.793 130.011C262.463 126.223 261.376 122.371 258.834 119.453C252.958 112.707 245.38 115.788 240.461 121.649C232.05 131.665 227.449 144.47 228.771 157.272C229.241 161.802 231.488 166.73 237.121 166.281C239.293 166.107 241.324 165.183 243.205 164.13C247.898 161.504 252.063 157.835 255.34 153.545Z" fill="#FFD0BE"/>
</g>
</g>
<path d="M239.882 142.851C240.304 141.293 240.89 139.786 241.567 138.319C242.844 135.558 244.597 132.889 246.893 130.846C249.009 128.957 252.094 126.919 255.082 127.892C257.469 128.668 259.098 131.806 256.9 133.713C256.48 134.076 255.712 133.593 256.075 133.084C256.795 132.075 256.471 130.722 255.38 130.12C254.336 129.542 253.089 129.679 252.017 130.093C250.6 130.644 249.335 131.627 248.223 132.736C249.733 134.905 250.582 137.468 250.61 140.121C250.647 143.189 249.645 146.518 247.477 148.786C247.029 149.253 246.331 148.659 246.607 148.123C247.279 146.814 247.887 145.596 248.259 144.172C248.609 142.827 248.854 141.518 248.83 140.121C248.794 137.917 248.169 135.799 247.195 133.838C246.972 134.1 246.738 134.36 246.532 134.623C245.075 136.503 243.977 138.652 243.078 140.839C242.592 142.022 242.1 143.216 241.667 144.42C241.21 145.69 240.877 147.037 240.197 148.212C239.819 148.868 238.685 148.603 238.722 147.817C238.804 146.125 239.442 144.48 239.882 142.851Z" fill="#D8225C"/>
<path d="M83.7325 110.699C76.7219 101.552 83.4986 26.9071 157.248 24.2967C230.997 21.6826 259.7 83.2678 242.682 110.148C225.662 137.027 97.5418 128.721 83.7325 110.699Z" fill="#FF9CAC"/>
<path d="M241.081 129.245C241.081 171.238 207.673 214.75 166.46 214.75C125.25 214.75 91.8418 171.238 91.8418 129.245C91.8418 87.2549 125.25 53.2156 166.46 53.2156C207.673 53.2156 241.081 87.2549 241.081 129.245Z" fill="#FFD0BE"/>
<path d="M183.557 169.827C180.358 173.989 175.036 176.733 169.796 177.153C167.484 177.339 165.121 177.048 162.91 176.366C160.593 175.65 158.58 174.454 156.405 173.449C155.703 173.125 155.115 174.061 155.557 174.608C158.807 178.609 165.241 179.818 170.138 179.393C173.008 179.142 175.837 178.208 178.319 176.772C180.988 175.228 182.994 173.161 184.738 170.665C185.268 169.904 184.125 169.091 183.557 169.827Z" fill="#D8225C"/>
<path d="M176.583 150.96C174.255 148.135 170.039 147.59 166.839 149.128C166.71 144.688 166.784 140.242 167.193 135.819C167.438 133.196 167.869 130.604 168.189 127.991C168.51 125.403 169.182 122.856 169.423 120.262C169.525 119.189 168.022 119.193 167.675 120.027C166.683 122.434 166.224 125.121 165.666 127.655C165.1 130.224 164.826 132.901 164.564 135.516C164.028 140.862 163.94 146.228 164.244 151.593C164.303 152.66 165.673 153.381 166.491 152.512C168.6 150.271 172.533 149.975 174.736 152.294C177.005 154.685 176.268 158.889 173.629 160.689C172.612 161.38 173.551 163.023 174.609 162.343C178.346 159.938 179.464 154.456 176.583 150.96Z" fill="#D8225C"/>
<path d="M211.3 141.086C210.307 141.335 209.48 142.235 208.638 142.797C207.706 143.42 206.717 143.984 205.671 144.4C203.499 145.269 201.132 145.596 198.8 145.387C196.45 145.178 194.183 144.349 192.193 143.113C191.25 142.528 190.394 141.821 189.664 140.992C188.903 140.128 188.563 139.068 187.929 138.138C187.656 137.738 186.964 137.758 186.839 138.278C186.268 140.635 188.517 143.079 190.22 144.42C192.436 146.167 195.094 147.301 197.898 147.732C200.62 148.152 203.415 147.927 206.012 146.992C207.277 146.536 208.521 145.962 209.64 145.215C210.685 144.518 212.169 143.515 212.479 142.25C212.65 141.544 212.022 140.908 211.3 141.086Z" fill="black"/>
<path d="M121.687 141.086C122.68 141.335 123.507 142.235 124.349 142.797C125.281 143.42 126.27 143.984 127.316 144.4C129.488 145.269 131.855 145.596 134.187 145.387C136.539 145.178 138.805 144.349 140.796 143.113C141.737 142.528 142.594 141.821 143.325 140.992C144.084 140.128 144.425 139.068 145.058 138.138C145.331 137.738 146.024 137.758 146.151 138.278C146.72 140.635 144.471 143.079 142.767 144.42C140.551 146.167 137.893 147.301 135.091 147.732C132.367 148.152 129.573 147.927 126.976 146.992C125.71 146.536 124.467 145.962 123.347 145.215C122.304 144.518 120.818 143.515 120.508 142.25C120.339 141.544 120.965 140.908 121.687 141.086Z" fill="black"/>
<g opacity="0.149994">
<g opacity="0.149994">
<path opacity="0.149994" d="M147.173 209.475C147.548 194.567 144.089 179.117 133.183 167.925C128.06 162.664 121.333 158.603 114.343 156.032C110.746 154.707 106.925 153.747 103.046 153.918C100.945 154.013 98.2461 154.649 96.1738 155.914C104.347 181.233 123.387 203.386 147.088 211.473C147.121 210.804 147.154 210.137 147.173 209.475Z" fill="#FFC0CA"/>
</g>
<g opacity="0.149994">
<path opacity="0.149994" d="M231.809 156.983C223.562 156.133 215.837 158.161 208.905 161.852C206.166 163.809 203.597 165.993 201.213 168.376C192.002 177.576 185.923 189.234 185.337 202.102C185.192 205.255 185.337 208.401 185.685 211.53C208.902 203.675 227.662 182.311 236.154 157.678C234.723 157.383 233.277 157.134 231.809 156.983Z" fill="#FFC0CA"/>
</g>
</g>
<path d="M217.712 138.521C216.918 147.145 207.874 153.938 197.803 153.406C181.719 152.553 173.366 134.391 181.224 123.58C182.786 121.435 184.985 119.579 187.892 118.205C192.224 116.156 197.56 115.745 202.246 117.098C207.993 118.754 212.466 122.879 215.098 127.58C216.997 130.973 218.056 134.767 217.712 138.521ZM193.843 174.044C192.67 178.263 189.096 183.097 184.847 185.64C175.269 191.37 161.338 190.488 152.975 183.44C151.321 182.044 149.883 180.415 149.087 178.541C147.952 175.869 148.328 172.72 150.664 170.608C154.031 167.56 159.45 167.254 164.022 166.969C169.914 166.602 175.81 166.234 181.703 165.867C183.856 165.734 186.048 165.602 188.146 166.029C192.486 166.911 194.871 170.345 193.843 174.044ZM133.214 153.548C123.262 152.115 116.224 143.74 117.705 135.184C118.35 131.457 120.37 127.967 123.108 125.029C126.9 120.959 132.334 117.807 138.366 117.307C143.288 116.898 148.376 118.336 152.065 121.172C154.537 123.073 156.197 125.307 157.156 127.701C161.992 139.757 149.109 155.833 133.214 153.548ZM161.57 159.083C161.83 158.043 162.832 157.267 163.878 156.705C167.245 154.9 171.515 154.626 175.37 155.427C176.779 155.72 178.199 156.171 179.24 157.041C179.642 157.378 179.99 157.79 180.078 158.265C180.168 158.741 179.942 159.283 179.443 159.499C179.225 159.596 178.977 159.621 178.733 159.619C177.857 159.616 177.037 159.27 176.18 159.108C175.501 158.981 174.799 158.972 174.105 158.963C172.11 158.937 170.087 158.916 168.157 159.352C166.915 159.632 160.886 161.793 161.57 159.083ZM229.683 104.038C229.268 103.722 228.802 103.46 228.297 103.282C226.575 102.677 224.63 102.808 222.792 103.057C221.412 103.242 215.741 104.929 214.389 105.233C216.157 104.211 222.777 102.259 223.873 100.686C224.396 99.9336 224.556 99.0356 224.593 98.1612C224.628 97.285 224.54 96.4088 224.35 95.5471C223.501 94.5637 222.593 93.6384 221.624 92.7749C192.163 66.516 133.395 64.7054 108.795 95.6653C108.799 95.8871 108.79 96.1107 108.806 96.3306C108.875 97.205 109.068 98.0994 109.615 98.8356C110.768 100.379 117.454 102.153 119.26 103.128C117.898 102.86 112.168 101.326 110.783 101.177C108.935 100.979 106.99 100.899 105.288 101.55C105.076 101.631 104.868 101.728 104.669 101.835C93.0133 123.357 99.6555 159.757 118.364 184.669C119.543 184.893 120.654 184.58 121.671 184.166C122.487 183.837 125.563 181.659 126.324 181.228C125.513 182.342 121.919 184.867 121.7 186.387C121.595 187.111 121.763 187.921 122.004 188.696C122.093 188.981 122.198 189.263 122.306 189.543C134.292 203.264 150.336 212.361 169.155 211.404C189.078 210.39 205.508 197.861 216.855 181.053C217.155 180.15 217.373 179.219 217.479 178.283C217.568 177.485 217.579 176.662 217.338 175.963C216.829 174.496 212.803 172.515 211.791 171.53C212.626 171.848 216.074 173.557 216.942 173.769C218.098 174.051 219.338 174.231 220.528 173.731C221.031 173.522 221.51 173.153 221.904 172.695C222.184 172.179 222.456 171.659 222.727 171.135C222.782 170.901 222.823 170.663 222.821 170.417L222.843 170.91C234.341 148.483 237.621 121.673 229.683 104.038Z" fill="#F2F0ED"/>
<g opacity="0.240005">
<g opacity="0.240005">
<path opacity="0.240005" d="M229.686 104.038C229.272 103.722 228.804 103.46 228.301 103.282C226.579 102.677 224.634 102.808 222.796 103.057C221.416 103.242 215.744 104.929 214.392 105.233C216.161 104.211 222.781 102.259 223.877 100.684C224.4 99.9336 224.56 99.0356 224.595 98.1612C224.632 97.285 224.544 96.4088 224.354 95.5471C223.505 94.5637 222.597 93.6366 221.628 92.7749C212.755 84.8636 201.215 79.1919 188.758 75.9452C194.212 83.3802 198.078 92.1096 200.635 100.657C202.28 106.16 203.49 111.926 204.192 117.778C209.003 119.725 212.773 123.422 215.102 127.58C217.001 130.972 218.06 134.765 217.715 138.521C217.012 146.165 209.826 152.359 201.189 153.3C199.316 158.979 196.676 164.369 193.184 169.29C194.037 170.666 194.326 172.321 193.847 174.044C192.674 178.263 189.1 183.097 184.851 185.64C179.988 188.548 174.002 189.745 168.19 189.303C159.26 193.286 149.385 195.224 139.8 193.857C133.104 192.904 127.202 190.274 121.711 186.703C121.682 187.345 121.802 188.029 122.008 188.694C122.096 188.981 122.201 189.263 122.31 189.543C134.298 203.264 150.339 212.361 169.159 211.404C189.082 210.39 205.512 197.86 216.859 181.053C217.159 180.15 217.376 179.217 217.483 178.283C217.572 177.483 217.583 176.662 217.341 175.962C216.833 174.496 212.806 172.515 211.795 171.53C212.63 171.848 216.078 173.557 216.945 173.768C218.102 174.051 219.342 174.229 220.532 173.731C221.035 173.522 221.514 173.153 221.908 172.695C222.188 172.177 222.46 171.657 222.731 171.135C222.786 170.899 222.827 170.661 222.825 170.417L222.847 170.91C234.345 148.483 237.625 121.673 229.686 104.038Z" fill="#AFBEF0"/>
</g>
</g>
<path d="M246.461 99.844C244.031 86.9427 237.389 74.1795 230.327 64.6013C222.618 54.145 212.655 45.7374 201.198 40.4075C189.58 35.0012 176.605 32.6216 163.791 34.145C157.519 34.8939 150.899 36.6936 145.069 39.9148C144.677 39.7712 144.284 39.6367 143.899 39.5131C140.261 38.3551 136.325 38.0752 132.512 38.5605C124.26 39.6149 116.824 44.2595 110.744 50.3457C104.359 56.7354 99.2332 64.6758 95.2563 72.9489C91.1653 81.4582 88.2881 90.5802 86.7593 99.9349C85.912 105.108 85.4718 110.329 85.4847 115.552C85.492 118.059 85.527 120.677 85.8438 123.216C85.9488 123.572 86.0464 123.931 86.1643 124.281C86.8919 126.47 88.336 130.882 91.0161 131.089C95.7095 131.451 97.2273 118.526 98.0064 115.259C102.652 95.7974 115.47 81.3128 133.284 75.0467C138.664 73.1543 144.281 71.0165 148.136 66.3501C148.812 65.5302 152.341 60.9747 151.785 59.893C151.919 60.1548 152.074 60.4039 152.21 60.6638C152.485 60.5257 152.864 60.6038 153.001 61.0128C154.616 65.852 158.626 69.2441 162.509 71.989C166.27 74.6485 170.315 76.8663 174.509 78.6224C183.288 82.2981 192.621 83.8796 201.723 86.3392C210.001 88.5769 217.921 92.4217 224.626 98.1098C228.306 101.231 231.2 105.241 233.419 109.646C235.665 114.1 236.455 119.139 238.441 123.583C238.754 124.281 239.369 124.883 240.095 124.923C240.513 124.947 240.922 124.787 241.299 124.592C243.2 123.62 244.585 121.709 245.571 119.764C246.884 117.157 247.325 114.167 247.415 111.244C247.531 107.484 247.181 103.66 246.461 99.844Z" fill="black"/>
<path d="M211.856 9.36828C213.538 6.95053 215.588 4.6764 218.263 3.39482C220.934 2.11323 224.325 1.99325 226.749 3.68749C228.635 5.00362 229.687 7.17595 230.556 9.28648C231.595 11.7987 232.498 14.3856 232.877 17.0723C233.411 20.8462 232.894 24.6891 232.138 28.4248C231.319 32.4605 230.201 36.4961 228.086 40.0427C225.019 45.18 214.662 52.8477 209.327 46.0907C204.687 40.2172 204.894 29.2683 206.306 22.4332C207.27 17.7758 209.132 13.2912 211.856 9.36828Z" fill="#FFC0CA"/>
<path d="M206.325 44.0669C205.755 41.5747 206.393 38.9333 207.562 36.6519C209.754 32.3709 214.066 29.0315 218.911 28.6443C223.755 28.2571 228.861 31.2438 230.235 35.8448C231.784 41.0311 228.596 47.0264 224.663 50.3876C220.616 53.8433 216.151 54.925 211.795 51.6038C209.366 49.7514 207.012 47.0882 206.325 44.0669Z" fill="#FF9CAC"/>
<path d="M214.738 51.1593C213.871 50.1213 213.097 48.9506 212.854 47.6272C212.486 45.6402 213.37 43.6188 214.569 41.9809C217.063 38.5833 220.88 36.3583 224.79 34.7131C230.493 32.3154 236.722 30.9393 242.899 31.4355C249.077 31.9318 255.192 34.4096 259.456 38.8488C260.803 40.2485 261.981 41.8864 262.392 43.7751C263.184 47.4199 260.937 51.0665 258.202 53.637C253.606 57.9562 247.389 60.4721 241.058 60.9175C232.213 61.541 220.548 58.1162 214.738 51.1593Z" fill="#FFC0CA"/>
<path d="M304.726 206.335C304.726 221.351 292.392 233.523 277.176 233.523C261.961 233.523 249.627 221.351 249.627 206.335C249.627 191.318 261.961 179.146 277.176 179.146C292.392 179.146 304.726 191.318 304.726 206.335Z" fill="black"/>
<path d="M300.534 206.327C300.534 206.527 300.534 206.728 300.514 206.93C300.208 219.388 289.865 229.392 277.182 229.392C264.273 229.392 253.811 219.066 253.811 206.327C253.811 193.609 264.273 183.28 277.182 183.28C290.068 183.28 300.534 193.609 300.534 206.327Z" fill="white"/>
<path d="M300.534 206.326C300.534 206.526 300.534 206.728 300.514 206.93H277.182V183.279C290.068 183.279 300.534 193.608 300.534 206.326Z" fill="#FF9CAC"/>
<path d="M277.176 187.071V190.519" stroke="black" stroke-width="1.33333" stroke-miterlimit="10" stroke-linecap="round" stroke-linejoin="round"/>
<path d="M277.176 222.803V226.251" stroke="black" stroke-width="1.33333" stroke-miterlimit="10" stroke-linecap="round" stroke-linejoin="round"/>
<path d="M297.026 206.66H293.533" stroke="black" stroke-width="1.33333" stroke-miterlimit="10" stroke-linecap="round" stroke-linejoin="round"/>
<path d="M260.82 206.66H257.326" stroke="black" stroke-width="1.33333" stroke-miterlimit="10" stroke-linecap="round" stroke-linejoin="round"/>
<path d="M291.21 192.808L288.74 195.248" stroke="black" stroke-width="1.33333" stroke-miterlimit="10" stroke-linecap="round" stroke-linejoin="round"/>
<path d="M265.613 218.075L263.141 220.513" stroke="black" stroke-width="1.33333" stroke-miterlimit="10" stroke-linecap="round" stroke-linejoin="round"/>
<path d="M291.21 220.512L288.74 218.074" stroke="black" stroke-width="1.33333" stroke-miterlimit="10" stroke-linecap="round" stroke-linejoin="round"/>
<path d="M265.613 195.247L263.141 192.808" stroke="black" stroke-width="1.33333" stroke-miterlimit="10" stroke-linecap="round" stroke-linejoin="round"/>
</svg>
