<svg width="323" height="296" viewBox="0 0 323 296" fill="none" xmlns="http://www.w3.org/2000/svg">
<g clip-path="url(#clip0_975_54)">
<path d="M321.497 223.213C315.197 249.39 296.041 271.168 272.776 282.893C265.556 286.528 258.151 289.873 250.599 292.891C247.891 293.964 245.184 295.018 242.439 296H79.5167C77.1222 295.018 74.746 294 72.3883 292.927C46.2691 281.148 22.5077 263.496 8.47372 239.664C4.21692 232.429 0.719 224.54 0.0908879 216.268C-0.535383 208.015 2.06182 199.326 8.28769 194.272C15.8416 188.146 26.8548 188.492 35.4568 183.911C45.4771 178.566 50.9128 167.205 53.416 155.861C55.9045 144.518 56.0519 132.647 58.6675 121.34C62.1469 106.27 70.0674 92.4909 81.1745 82.2018C93.9394 70.3312 112.875 63.1689 129.471 70.0767C140.891 74.8395 149.106 85.2013 157.524 94.5269C165.942 103.834 176.183 113.033 188.34 113.923C197.163 114.578 205.434 110.706 213.447 107.288C223.172 103.143 233.395 99.5078 244.097 99.6532C254.817 99.7986 266.164 104.38 272.297 113.578C278.323 122.613 278.339 134.047 278.93 144.736C279.536 155.425 281.563 167.314 289.909 174.169C296.612 179.675 305.932 180.62 312.802 185.892C323.873 194.345 324.407 211.088 321.497 223.213Z" fill="#FFECEC"/>
<path d="M252.019 296H72.5664L77.4329 271.837C82.5831 246.269 106.694 227.726 134.796 227.726H189.788C217.892 227.726 242.004 246.269 247.152 271.837L252.019 296Z" fill="#FFD0BE"/>
<path d="M188.483 233.163C188.483 233.163 186.05 239.455 162.291 239.455C138.531 239.455 136.1 233.163 136.1 233.163V190.045H188.483V233.163Z" fill="#FFD0BE"/>
<path d="M188.483 212.909C188.483 212.909 179.865 222.625 162.291 222.625C144.716 222.625 136.1 212.909 136.1 212.909V190.045H188.483V212.909Z" fill="#D8225C"/>
<path d="M247.152 271.837C242.302 247.759 220.635 229.919 194.658 227.921C194.459 229.762 194.168 231.6 193.764 233.422C192.263 240.177 189.169 246.892 183.985 251.671C178.588 256.648 171.39 258.859 164.072 258.519C155.171 258.103 146.894 254.311 141.104 247.585C138.305 244.332 136.124 240.64 134.488 236.696C133.351 233.951 132.305 230.813 132.338 227.777C105.296 228.823 82.4302 247.016 77.4311 271.837L72.5664 296H252.019L247.152 271.837Z" fill="#FF9CAC"/>
<g opacity="0.380005">
<g opacity="0.380005">
<path opacity="0.380005" d="M215.818 240.138C219.916 253.767 221.567 268.035 223.225 282.112C223.766 286.737 224.298 291.367 224.763 295.999H252.02L247.155 271.836C243.514 253.761 230.395 239.204 213.094 232.223C214.111 234.817 215.013 237.461 215.818 240.138Z" fill="#FF9CAC"/>
</g>
<g opacity="0.380005">
<path opacity="0.380005" d="M100.095 264.168C101.463 256.934 103.215 249.763 105.617 242.793C106.746 239.512 108.023 236.278 109.437 233.104C93.1579 240.385 80.9291 254.488 77.433 271.837L72.5684 296H95.7956C96.6319 285.322 98.1018 274.687 100.095 264.168Z" fill="#FF9CAC"/>
</g>
</g>
<path d="M145.468 13.6663C144.258 8.39453 140.023 4.1862 135.111 2.07204C130.197 -0.0439391 124.682 -0.296623 119.369 0.245097C97.24 2.49741 77.203 19.1872 70.723 40.7651C69.616 44.4444 68.8736 48.3328 69.4686 52.1321C70.5977 59.3254 76.6854 65.1752 83.6684 66.8749C88.8738 68.1419 93.9502 66.844 98.9033 65.2097C109.517 61.7049 119.648 57.2185 128.121 49.6907C133.088 45.2788 137.307 40.0034 140.556 34.1717C143.954 28.0674 147.108 20.8141 145.468 13.6663Z" fill="black"/>
<path d="M72.5516 153.545C67.3425 146.723 64.377 138.321 65.0972 130.011C65.4269 126.223 66.5136 122.371 69.0556 119.453C74.9315 112.707 82.5112 115.788 87.4311 121.649C95.8415 131.665 100.441 144.47 99.1184 157.272C98.6505 161.802 96.4033 166.73 90.7706 166.281C88.5989 166.107 86.5672 165.183 84.6847 164.13C79.9914 161.504 75.8267 157.835 72.5516 153.545Z" fill="#FFD0BE"/>
<g opacity="0.410004">
<g opacity="0.410004">
<path opacity="0.410004" d="M87.43 121.65C82.5101 115.789 74.9303 112.708 69.0526 119.454C68.2532 120.373 67.6085 121.393 67.0762 122.468C71.3422 123.662 75.2435 128.157 77.5515 131.202C81.333 136.194 83.8252 141.875 86.3819 147.532C88.9551 153.227 91.9391 159.577 93.4827 166.029C97.1482 164.965 98.7341 160.99 99.1173 157.272C100.438 144.471 95.8386 131.666 87.43 121.65Z" fill="#FFD0BE"/>
</g>
</g>
<path d="M88.0044 142.851C87.5826 141.295 86.9969 139.786 86.319 138.319C85.0444 135.558 83.289 132.889 80.9957 130.846C78.8775 128.957 75.794 126.919 72.8045 127.892C70.4173 128.668 68.789 131.806 70.9883 133.713C71.4064 134.076 72.1745 133.594 71.8117 133.084C71.0933 132.075 71.4175 130.722 72.5079 130.12C73.5505 129.542 74.7975 129.679 75.8714 130.093C77.286 130.644 78.5514 131.627 79.6658 132.736C78.1554 134.905 77.3063 137.468 77.2768 140.121C77.2418 143.189 78.2438 146.518 80.41 148.786C80.8576 149.253 81.5557 148.659 81.2812 148.123C80.6071 146.814 79.9992 145.596 79.6272 144.172C79.2772 142.827 79.0322 141.518 79.058 140.121C79.0948 137.917 79.7174 135.799 80.6918 133.838C80.9165 134.1 81.1505 134.36 81.3568 134.623C82.8119 136.503 83.9097 138.652 84.8105 140.839C85.2967 142.022 85.7867 143.216 86.2196 144.42C86.6782 145.69 87.0116 147.037 87.6913 148.212C88.0689 148.868 89.2036 148.603 89.1649 147.817C89.082 146.125 88.4447 144.48 88.0044 142.851Z" fill="#D8225C"/>
<path d="M250.301 153.545C255.51 146.723 258.476 138.321 257.756 130.011C257.426 126.223 256.339 122.371 253.797 119.453C247.921 112.707 240.342 115.788 235.422 121.649C227.011 131.665 222.412 144.47 223.734 157.272C224.202 161.802 226.449 166.73 232.082 166.281C234.254 166.107 236.286 165.183 238.168 164.13C242.861 161.504 247.026 157.835 250.301 153.545Z" fill="#FFD0BE"/>
<g opacity="0.410004">
<g opacity="0.410004">
<path opacity="0.410004" d="M234.722 147.176C237.632 138.114 242.52 129.907 248.901 122.804C249.982 121.599 251.434 120.134 253.095 118.734C247.326 112.979 240.146 116.018 235.42 121.65C227.009 131.666 222.41 144.471 223.732 157.273C224.18 161.615 226.274 166.309 231.41 166.296C231.575 159.805 232.73 153.371 234.722 147.176Z" fill="#FFD0BE"/>
</g>
</g>
<path d="M234.847 142.851C235.269 141.295 235.855 139.786 236.532 138.319C237.807 135.558 239.562 132.889 241.856 130.846C243.974 128.957 247.057 126.919 250.047 127.892C252.434 128.668 254.061 131.806 251.863 133.713C251.445 134.076 250.677 133.594 251.04 133.084C251.758 132.075 251.434 130.722 250.343 130.12C249.301 129.542 248.054 129.679 246.98 130.093C245.565 130.644 244.298 131.627 243.186 132.736C244.696 134.905 245.545 137.468 245.575 140.121C245.61 143.189 244.608 146.518 242.441 148.786C241.994 149.253 241.296 148.659 241.57 148.123C242.244 146.814 242.852 145.596 243.224 144.172C243.574 142.827 243.819 141.518 243.793 140.121C243.757 137.917 243.134 135.799 242.16 133.838C241.935 134.1 241.701 134.36 241.495 134.623C240.039 136.503 238.942 138.652 238.041 140.839C237.555 142.022 237.065 143.216 236.632 144.42C236.173 145.69 235.84 147.037 235.16 148.212C234.782 148.868 233.648 148.603 233.687 147.817C233.769 146.125 234.407 144.48 234.847 142.851Z" fill="#D8225C"/>
<path d="M78.6982 110.699C71.6858 101.551 78.4624 26.9067 152.211 24.2963C225.96 21.6822 254.664 83.2674 237.646 110.148C220.628 137.027 92.5056 128.721 78.6982 110.699Z" fill="#FF9CAC"/>
<path d="M236.047 129.245C236.047 171.238 202.637 214.75 161.425 214.75C120.214 214.75 86.8066 171.238 86.8066 129.245C86.8066 87.2549 120.214 53.2156 161.425 53.2156C202.637 53.2156 236.047 87.2549 236.047 129.245Z" fill="#FFD0BE"/>
<g opacity="0.149994">
<g opacity="0.149994">
<path opacity="0.149994" d="M142.137 209.475C142.515 194.567 139.054 179.117 128.149 167.925C123.027 162.664 116.3 158.603 109.31 156.032C105.712 154.707 101.89 153.747 98.0129 153.918C95.9094 154.013 93.2109 154.649 91.1387 155.916C99.3133 181.233 118.352 203.386 142.053 211.473C142.086 210.804 142.121 210.137 142.137 209.475Z" fill="#FFC0CA"/>
</g>
<g opacity="0.149994">
<path opacity="0.149994" d="M226.773 156.983C218.527 156.133 210.8 158.161 203.868 161.852C201.129 163.809 198.56 165.993 196.176 168.376C186.965 177.576 180.886 189.234 180.302 202.102C180.157 205.255 180.302 208.401 180.648 211.53C203.865 203.675 222.625 182.311 231.117 157.678C229.687 157.383 228.239 157.134 226.773 156.983Z" fill="#FFC0CA"/>
</g>
</g>
<path d="M134.593 142.208C134.593 147.502 132.139 151.794 129.111 151.794C126.086 151.794 123.633 147.502 123.633 142.208C123.633 136.913 126.086 132.621 129.111 132.621C132.139 132.621 134.593 136.913 134.593 142.208Z" fill="black"/>
<path d="M201.208 142.208C201.208 147.502 198.754 151.794 195.726 151.794C192.7 151.794 190.246 147.502 190.246 142.208C190.246 136.913 192.7 132.621 195.726 132.621C198.754 132.621 201.208 136.913 201.208 142.208Z" fill="black"/>
<path d="M171.548 150.96C169.22 148.136 165.003 147.59 161.804 149.128C161.677 144.689 161.749 140.242 162.159 135.82C162.403 133.196 162.834 130.604 163.156 127.992C163.475 125.403 164.147 122.856 164.39 120.262C164.49 119.19 162.987 119.193 162.642 120.028C161.649 122.435 161.189 125.122 160.631 127.656C160.067 130.224 159.791 132.902 159.529 135.516C158.993 140.862 158.905 146.229 159.209 151.593C159.269 152.66 160.638 153.382 161.456 152.513C163.565 150.272 167.498 149.975 169.701 152.295C171.97 154.685 171.233 158.89 168.593 160.69C167.577 161.38 168.516 163.024 169.575 162.344C173.311 159.939 174.429 154.456 171.548 150.96Z" fill="#D8225C"/>
<path d="M204.054 117.052C202.422 115.451 200.451 114.26 198.32 113.429C194.02 111.755 187.924 111.622 184.098 114.535C183.271 115.164 183.702 116.54 184.84 116.273C186.931 115.785 188.9 115.207 191.071 115.165C193.16 115.124 195.256 115.465 197.189 116.262C198.846 116.941 200.377 117.961 201.713 119.136C202.455 119.786 203.055 120.524 203.72 121.246C204.356 121.933 204.877 122.79 205.595 123.384C206.22 123.904 207.412 123.617 207.351 122.666C207.218 120.544 205.518 118.492 204.054 117.052Z" fill="black"/>
<path d="M120.786 117.052C122.418 115.451 124.389 114.26 126.52 113.429C130.819 111.755 136.916 111.622 140.743 114.535C141.569 115.164 141.138 116.54 140.001 116.273C137.909 115.785 135.941 115.207 133.77 115.165C131.679 115.124 129.583 115.465 127.651 116.262C125.993 116.941 124.462 117.961 123.127 119.136C122.385 119.786 121.784 120.524 121.119 121.246C120.485 121.933 119.962 122.79 119.244 123.384C118.62 123.904 117.428 123.617 117.489 122.666C117.621 120.544 119.321 118.492 120.786 117.052Z" fill="black"/>
<path d="M143.969 163.779C149.482 160.439 153.566 165.542 164.802 166.027C172.912 166.382 181.037 161.683 184.854 164.211C188.672 166.744 180.07 181.09 163.601 181.67C147.132 182.248 138.456 167.12 143.969 163.779Z" fill="white"/>
<path d="M241.427 99.8436C238.997 86.9423 232.355 74.1792 225.293 64.6009C217.584 54.1446 207.619 45.737 196.162 40.4071C184.545 35.0008 171.572 32.6212 158.757 34.1446C152.485 34.8935 145.865 36.6932 140.035 39.9144C139.643 39.7708 139.251 39.6363 138.864 39.5127C135.226 38.3565 131.29 38.0748 127.479 38.5601C119.225 39.6145 111.789 44.2591 105.708 50.3453C99.326 56.735 94.198 64.6754 90.2212 72.9485C86.132 81.4578 83.253 90.5798 81.7241 99.9363C80.8787 105.108 80.4366 110.329 80.4495 115.552C80.4569 118.058 80.4919 120.676 80.8105 123.216C80.9155 123.572 81.0113 123.93 81.1292 124.281C81.8568 126.47 83.3009 130.882 85.9828 131.089C90.6761 131.45 92.1921 118.526 92.9731 115.259C97.6167 95.7971 110.435 81.3124 128.249 75.0463C133.631 73.1539 139.245 71.0161 143.1 66.3497C143.776 65.5298 147.308 60.9743 146.749 59.8926C146.884 60.1544 147.039 60.4035 147.177 60.6634C147.451 60.5253 147.831 60.6034 147.967 61.0143C149.581 65.8534 153.592 69.2437 157.475 71.9905C161.235 74.6482 165.282 76.8678 169.476 78.6238C178.255 82.2977 187.588 83.8792 196.687 86.3388C204.965 88.5765 212.885 92.4213 219.592 98.1094C223.27 101.231 226.164 105.241 228.384 109.645C230.629 114.099 231.421 119.138 233.407 123.583C233.718 124.281 234.333 124.883 235.061 124.923C235.479 124.948 235.886 124.786 236.264 124.592C238.167 123.619 239.552 121.709 240.535 119.764C241.849 117.157 242.291 114.166 242.381 111.243C242.495 107.484 242.145 103.659 241.427 99.8436Z" fill="black"/>
<path d="M206.82 9.36832C208.5 6.95057 210.552 4.67826 213.225 3.39485C215.895 2.11327 219.288 1.99329 221.712 3.68753C223.597 5.00365 224.649 7.17599 225.518 9.28651C226.557 11.7987 227.461 14.3856 227.841 17.0723C228.373 20.8462 227.857 24.6891 227.1 28.4248C226.282 32.4605 225.164 36.4979 223.048 40.0427C219.983 45.18 209.624 52.8477 204.289 46.0907C199.651 40.2191 199.856 29.2683 201.27 22.4332C202.234 17.7758 204.094 13.2912 206.82 9.36832Z" fill="#FFECEC"/>
<path d="M201.289 44.0669C200.72 41.5747 201.358 38.9333 202.527 36.6519C204.719 32.3727 209.031 29.0315 213.876 28.6443C218.72 28.2571 223.828 31.2438 225.2 35.8448C226.749 41.0329 223.562 47.0264 219.628 50.3876C215.583 53.8433 211.116 54.925 206.76 51.6038C204.33 49.7514 201.978 47.0882 201.289 44.0669Z" fill="#FF9CAC"/>
<path d="M209.703 51.1599C208.836 50.1219 208.062 48.9512 207.819 47.6278C207.451 45.6409 208.333 43.6194 209.534 41.9815C212.028 38.584 215.843 36.3589 219.755 34.7138C225.456 32.316 231.687 30.9399 237.863 31.4362C244.041 31.9324 250.155 34.4102 254.419 38.8494C255.766 40.2491 256.944 41.887 257.355 43.7757C258.147 47.4205 255.9 51.0672 253.165 53.6376C248.569 57.9568 242.352 60.4727 236.023 60.9181C227.176 61.5434 215.511 58.1168 209.703 51.1599Z" fill="#FFECEC"/>
<path d="M229.93 202.254C229.93 202.254 242.822 201.183 246.198 194.845C249.574 188.506 250.035 172.614 250.035 172.614C250.035 172.614 251.488 189.74 254.958 194.432C258.427 199.124 270.142 201.349 270.142 201.349C270.142 201.349 259.713 202.129 256.209 206.802C252.704 211.474 251.871 227.777 251.871 227.777C251.871 227.777 249.867 211.351 245.614 206.802C241.359 202.254 229.93 202.254 229.93 202.254Z" fill="white"/>
<path d="M270.143 228.893C270.143 228.893 277.444 228.286 279.356 224.696C281.268 221.106 281.53 212.107 281.53 212.107C281.53 212.107 282.351 221.807 284.317 224.461C286.282 227.119 292.915 228.381 292.915 228.381C292.915 228.381 287.01 228.823 285.026 231.469C283.04 234.116 282.569 243.347 282.569 243.347C282.569 243.347 281.434 234.043 279.025 231.469C276.615 228.893 270.143 228.893 270.143 228.893Z" fill="white"/>
<path d="M78.5352 191.693C78.5352 191.693 85.2049 191.139 86.9511 187.859C88.6992 184.58 88.9349 176.358 88.9349 176.358C88.9349 176.358 89.6883 185.218 91.4824 187.645C93.2783 190.072 99.3384 191.224 99.3384 191.224C99.3384 191.224 93.9433 191.628 92.1308 194.045C90.3164 196.463 89.8854 204.898 89.8854 204.898C89.8854 204.898 88.8502 196.398 86.649 194.045C84.4479 191.693 78.5352 191.693 78.5352 191.693Z" fill="white"/>
<path d="M36.6992 202.911C36.6992 202.911 41.3428 202.526 42.5604 200.241C43.7761 197.958 43.9437 192.233 43.9437 192.233C43.9437 192.233 44.4668 198.405 45.7157 200.094C46.9645 201.784 51.1845 202.584 51.1845 202.584C51.1845 202.584 47.4287 202.868 46.167 204.549C44.9034 206.233 44.6031 212.108 44.6031 212.108C44.6031 212.108 43.8811 206.189 42.3485 204.549C40.816 202.911 36.6992 202.911 36.6992 202.911Z" fill="white"/>
<path d="M56.6719 224.109C56.6719 224.109 65.7067 223.36 68.0718 218.918C70.4406 214.473 70.7611 203.337 70.7611 203.337C70.7611 203.337 71.7797 215.34 74.2111 218.627C76.6444 221.915 84.854 223.473 84.854 223.473C84.854 223.473 77.5451 224.02 75.0897 227.296C72.6326 230.572 72.0487 241.997 72.0487 241.997C72.0487 241.997 70.6451 230.485 67.6648 227.296C64.6826 224.109 56.6719 224.109 56.6719 224.109Z" fill="white"/>
</g>
<defs>
<clipPath id="clip0_975_54">
<rect width="323" height="296" fill="white"/>
</clipPath>
</defs>
</svg>
