<svg width="390" height="844" viewBox="0 0 390 844" fill="none" xmlns="http://www.w3.org/2000/svg">
<g clip-path="url(#clip0_912_6653)">
<mask id="mask0_912_6653" style="mask-type:alpha" maskUnits="userSpaceOnUse" x="-538" y="-55" width="1440" height="900">
<path d="M902 -55H-538V845H902V-55Z" fill="#FFC5C3"/>
</mask>
<g mask="url(#mask0_912_6653)">
<g opacity="0.600006">
<g opacity="0.600006">
<path opacity="0.600006" d="M166.216 486.411C134.399 451.776 61.0151 455.857 16.2131 465.697C1.02207 469.032 -12.907 475.469 -26.749 481.71C-57.579 495.613 -89.777 509.086 -124.595 511.845C-171.178 515.538 -206.567 497.765 -226.892 463.242C-232.196 454.229 -241.013 447.382 -246.957 438.744C-249.96 434.382 -251.74 429.493 -254.911 425.198C-258.44 420.42 -263.158 416.239 -267.184 411.762C-297.969 377.502 -317.289 349.462 -374.615 359.815C-418.897 367.818 -463.097 387.033 -496.99 412.349C-542.282 446.175 -547.723 484.721 -569.111 529.971C-585.155 563.911 -623.802 586.247 -641.305 619.2C-648.941 633.579 -651.04 650.955 -642.314 664.884C-614.754 708.872 -533.187 688.257 -523.098 748.216C-516.174 789.364 -545.838 820.713 -573.338 850.921C-614.658 896.307 -592.996 966.8 -535.42 994.24C-524.076 999.65 -511.752 1003.43 -499.284 1006.6C-439.672 1021.76 -368.785 1021.27 -322.446 986.29C-290.747 962.35 -275.849 926.422 -266.788 891.301C-255.716 848.385 -255.307 794.538 -211.841 764.832C-198.038 755.398 -180.736 750.436 -163.51 746.774C-112.297 735.887 -58.9309 734.988 -6.55792 729.165C45.8121 723.345 99.375 711.734 139.92 683.179C162.193 667.494 179.499 646.048 187.434 622.385C201.095 581.645 198.282 521.319 166.216 486.411Z" fill="white"/>
</g>
<g opacity="0.600006">
<path opacity="0.600006" d="M-286.892 -66.8445C-286.858 -66.8204 -286.907 -66.6955 -286.983 -66.5355C-286.979 -66.7459 -286.957 -66.8928 -286.892 -66.8445ZM186.339 -35.173C184.648 -42.5934 181.517 -49.4221 178.661 -56.4612C176.392 -62.0627 173.729 -67.4888 170.687 -72.7287C167.272 -78.6129 163.597 -84.7031 159.168 -89.9298C155.297 -94.5013 150.351 -98.0515 145.36 -101.354C134.878 -108.288 126.136 -117.122 114.575 -122.438C108.398 -125.279 101.944 -127.347 95.0732 -127.475C88.2662 -127.6 81.4402 -127.814 74.6322 -127.613C67.3632 -127.398 60.0922 -127.306 52.8452 -127.904C47.9492 -128.307 42.6992 -128.524 38.3932 -130.626C33.3822 -133.072 28.6822 -134.761 24.0182 -137.864C19.1662 -141.088 14.6913 -144.027 10.8503 -148.425C2.18525 -158.344 -2.99377 -170.423 -7.99277 -182.4C-20.9398 -213.41 -19.9838 -251.923 -47.7888 -275.293C-75.1118 -298.258 -117.138 -295.168 -148.445 -282.133C-204.394 -258.839 -242.587 -212.41 -265.591 -158.451C-306.698 -62.0298 -317.14 69.4929 -235.305 148.917C-177.908 204.625 -96.5397 213.049 -19.7487 204.279C-3.42775 202.412 13.1243 200.415 29.1543 197.174C38.7553 195.233 47.8572 191.619 56.7932 187.674C64.9172 184.084 73.4932 181.88 81.5052 178.132C87.5402 175.31 93.2883 171.904 98.8783 168.321C108.275 162.292 117.513 155.672 126.38 148.843C136.044 141.401 144.834 132.9 152.123 123.207C161.321 110.976 169.626 97.7919 175.678 83.7219C181.373 70.4749 185.185 56.5409 188.515 42.577C190.22 35.4196 191.028 28.0824 190.771 20.7365C190.609 16.0599 190.363 11.3964 190.524 6.70441C191.001 -7.19189 189.441 -21.5791 186.339 -35.173Z" fill="white"/>
</g>
</g>
<path d="M28.129 800.107C27.068 799.327 25.974 801.074 25.873 802.369C25.77 803.712 25.7299 805.058 25.7519 806.403C25.7899 808.45 26.0139 810.611 27.2469 812.261C28.4799 813.914 31.036 814.771 32.732 813.576C33.52 813.022 33.997 812.128 34.297 811.223C35.778 806.765 33.043 801.389 28.518 799.862" fill="#F2F0ED"/>
<path d="M45.142 831.824C43.388 834.39 43.4749 838.03 45.3499 840.513C46.2809 841.747 47.8839 842.742 49.3699 842.254C50.7349 841.804 51.433 840.283 51.543 838.879C51.838 835.133 48.6449 831.46 44.8239 831.145" fill="#F2F0ED"/>
<path d="M49.2609 803.947C48.7709 806.489 48.2959 809.202 49.3119 811.591C50.3279 813.98 53.4679 815.678 55.6969 814.291C58.2029 812.73 57.595 808.919 55.992 806.471C55.325 805.455 54.5439 804.512 53.6629 803.666C53.0849 803.11 52.3959 802.568 51.5879 802.551C50.7779 802.531 49.9409 803.327 50.2359 804.065" fill="#F2F0ED"/>
<path d="M45.2142 774.98C43.4932 779.453 47.8682 784.331 52.6602 785.24C53.1052 785.326 53.6072 785.376 53.9762 785.12C54.3182 784.883 54.4483 784.449 54.5333 784.048C55.4823 779.534 53.2802 774.548 49.2722 772.133C48.5852 771.721 47.7792 771.369 46.9932 771.544C46.2082 771.719 45.5862 772.655 46.0132 773.326" fill="#F2F0ED"/>
<path d="M75.7669 802.964C75.1699 805.219 74.6709 807.573 75.0869 809.865C75.5029 812.16 77.0299 814.4 79.3169 815.046C80.3869 815.346 81.6579 815.239 82.4409 814.463C83.0559 813.856 83.2649 812.964 83.3879 812.12C83.7499 809.629 83.5689 806.955 82.2239 804.812C80.8769 802.666 78.1579 801.233 75.6799 801.904" fill="#F2F0ED"/>
<path d="M78.9727 773.906C79.2677 776.253 79.9036 778.801 81.8636 780.186C83.8216 781.569 87.3537 780.684 87.4807 778.321C87.5257 777.513 87.1767 776.737 86.8347 775.998C86.1947 774.618 85.5246 773.2 84.3856 772.174C83.2466 771.146 81.5057 770.603 80.1157 771.274" fill="#F2F0ED"/>
<path d="M105.146 792.484C105.417 795.701 106.433 798.853 108.096 801.638C108.83 802.861 109.834 804.112 111.262 804.351C113.654 804.752 115.469 802.046 115.52 799.67C115.614 795.276 111.629 791.196 107.141 791.09" fill="#F2F0ED"/>
<path d="M110.606 761.089C110.49 763.44 111.752 765.811 113.786 767.069C114.294 767.383 114.894 767.637 115.485 767.527C116.774 767.286 117.108 765.649 117.099 764.365C117.081 762.279 116.835 760.013 115.373 758.49C113.912 756.969 110.857 756.872 109.955 758.763" fill="#F2F0ED"/>
<path d="M132.587 811.091C134.836 812.296 135.348 815.842 137.864 816.333C139.605 816.67 141.268 815.108 141.59 813.398C141.912 811.689 141.236 809.955 140.422 808.41C139.739 807.12 138.873 805.811 137.521 805.202C135.771 804.413 133.475 805.149 132.504 806.778C131.535 808.406 131.987 810.696 133.482 811.884" fill="#F2F0ED"/>
<path d="M102.565 830.818C102.54 833.7 103.532 836.58 105.329 838.861C105.658 839.28 106.032 839.692 106.522 839.918C108.547 840.858 110.402 838.053 110.174 835.87C109.867 832.935 107.744 830.253 104.917 829.234" fill="#F2F0ED"/>
<path d="M73.8397 842.441C73.1177 845.144 73.1177 848.034 73.8447 850.736C74.2067 852.077 74.7777 853.425 75.8407 854.346C76.9017 855.266 78.5487 855.643 79.7707 854.94C80.6617 854.425 81.1737 853.449 81.4317 852.47C82.4177 848.692 79.6987 844.381 75.8097 843.553" fill="#F2F0ED"/>
<path d="M20.4609 839.576C20.4949 842.133 20.58 844.857 22.059 846.965C23.538 849.071 26.9669 850.051 28.7859 848.217C29.3859 847.612 29.7239 846.797 29.8889 845.971C30.5199 842.802 28.432 839.333 25.293 838.34C24.572 838.11 23.737 838.013 23.088 838.401C22.442 838.787 22.186 839.808 22.775 840.279" fill="#F2F0ED"/>
<path d="M-3.70011 797.481C-5.27411 798.579 -4.8731 801.363 -3.1071 802.127C-1.3391 802.894 0.942869 801.52 1.20687 799.644C1.47087 797.771 -0.153137 795.906 -2.07414 795.693" fill="#F2F0ED"/>
<path d="M141.463 771.543C141.347 773.952 142.954 776.345 145.254 777.197C145.715 777.015 146.176 776.836 146.64 776.654C147.262 774.876 146.752 772.764 145.377 771.447C144.003 770.13 141.837 769.674 140.033 770.322" fill="#F2F0ED"/>
<path d="M57.889 750.638C57.527 752.084 57.686 753.757 58.715 754.852C59.747 755.948 61.781 756.139 62.739 754.979C63.578 753.965 63.283 752.382 62.434 751.372C61.586 750.364 60.329 749.79 59.113 749.251" fill="#F2F0ED"/>
<path d="M16.4 768.65C16.01 770.565 18.499 772.209 20.352 771.483C22.203 770.758 23.013 768.43 22.462 766.552C21.379 764.882 19.067 763.905 17.235 764.733C15.399 765.562 14.818 768.426 16.449 769.594" fill="#F2F0ED"/>
<path d="M93.9277 740.762C94.4267 742.471 95.6758 743.957 97.2938 744.763C98.3208 743.895 99.0908 742.613 98.9628 741.29C98.8328 739.966 97.5688 738.739 96.2278 738.943C94.8858 739.146 94.1398 741.099 95.1968 741.936" fill="#F2F0ED"/>
<path d="M224.431 339.007C224.48 339.007 224.48 338.929 224.431 338.929C224.38 338.929 224.38 339.007 224.431 339.007Z" fill="#DA7153"/>
<path d="M219.632 357.532C219.704 357.532 219.704 357.423 219.632 357.423C219.56 357.423 219.56 357.532 219.632 357.532Z" fill="#DA7153"/>
<path d="M188.749 744.627C188.822 744.627 188.822 744.518 188.749 744.518C188.677 744.518 188.677 744.627 188.749 744.627Z" fill="#DA7153"/>
<g opacity="0.600006">
<g opacity="0.600006">
<g opacity="0.600006">
<g opacity="0.600006">
<path opacity="0.600006" d="M939.36 1285.13C949.67 1239.28 903.91 1183.64 869.89 1154.06C858.35 1144.03 844.98 1136.85 831.82 1129.62C802.5 1113.52 772.75 1096.08 750.36 1070.18C702.84 1015.2 731.75 960.27 751.41 899.537C759.97 873.06 765.24 844.188 756.68 817.981C733.18 746.051 661.25 720.113 590.22 717.947C533.59 716.22 477.68 726.341 420.762 722.439C398.022 720.88 374.307 718.303 353.011 726.774C318.099 740.658 316.66 775.927 326.677 806.117C336.424 835.501 350.577 869.828 324.478 895.894C294.402 925.932 251.311 921.168 210.414 917.437C148.966 911.826 103.101 971.04 113.628 1032.98C115.7 1045.19 119.685 1057.2 124.258 1068.96C146.132 1125.18 187.477 1180.98 243.214 1196.77C281.336 1207.57 319.694 1197.92 354.01 1184.12C395.943 1167.27 440.773 1135.46 490.47 1152.12C506.26 1157.42 520.36 1168.15 533.34 1179.59C571.93 1213.63 603.49 1255.32 638.56 1293.29C673.62 1331.26 714.17 1366.72 761.23 1381.76C787.09 1390.02 814.84 1390.92 839.02 1383.07C880.64 1369.57 928.98 1331.34 939.36 1285.13Z" fill="white"/>
</g>
</g>
</g>
<g opacity="0.600006">
<g opacity="0.600006">
<g opacity="0.600006">
<path opacity="0.600006" d="M939.36 1285.13C949.67 1239.28 903.91 1183.64 869.89 1154.06C858.35 1144.03 844.98 1136.85 831.82 1129.62C802.5 1113.52 772.75 1096.08 750.36 1070.18C702.84 1015.2 731.75 960.27 751.41 899.537C759.97 873.06 765.24 844.188 756.68 817.981C733.18 746.051 661.25 720.113 590.22 717.947C533.59 716.22 477.68 726.341 420.762 722.439C398.022 720.88 374.307 718.303 353.011 726.774C318.099 740.658 316.66 775.927 326.677 806.117C336.424 835.501 350.577 869.828 324.478 895.894C294.402 925.932 251.311 921.168 210.414 917.437C148.966 911.826 103.101 971.04 113.628 1032.98C115.7 1045.19 119.685 1057.2 124.258 1068.96C146.132 1125.18 187.477 1180.98 243.214 1196.77C281.336 1207.57 319.694 1197.92 354.01 1184.12C395.943 1167.27 440.773 1135.46 490.47 1152.12C506.26 1157.42 520.36 1168.15 533.34 1179.59C571.93 1213.63 603.49 1255.32 638.56 1293.29C673.62 1331.26 714.17 1366.72 761.23 1381.76C787.09 1390.02 814.84 1390.92 839.02 1383.07C880.64 1369.57 928.98 1331.34 939.36 1285.13Z" fill="white"/>
</g>
</g>
</g>
<g opacity="0.600006">
<g opacity="0.600006">
<g opacity="0.600006">
<path opacity="0.600006" d="M939.36 1285.13C949.67 1239.28 903.91 1183.64 869.89 1154.06C858.35 1144.03 844.98 1136.85 831.82 1129.62C802.5 1113.52 772.75 1096.08 750.36 1070.18C702.84 1015.2 731.75 960.27 751.41 899.537C759.97 873.06 765.24 844.188 756.68 817.981C733.18 746.051 661.25 720.113 590.22 717.947C533.59 716.22 477.68 726.341 420.762 722.439C398.022 720.88 374.307 718.303 353.011 726.774C318.099 740.658 316.66 775.927 326.677 806.117C336.424 835.501 350.577 869.828 324.478 895.894C294.402 925.932 251.311 921.168 210.414 917.437C148.966 911.826 103.101 971.04 113.628 1032.98C115.7 1045.19 119.685 1057.2 124.258 1068.96C146.132 1125.18 187.477 1180.98 243.214 1196.77C281.336 1207.57 319.694 1197.92 354.01 1184.12C395.943 1167.27 440.773 1135.46 490.47 1152.12C506.26 1157.42 520.36 1168.15 533.34 1179.59C571.93 1213.63 603.49 1255.32 638.56 1293.29C673.62 1331.26 714.17 1366.72 761.23 1381.76C787.09 1390.02 814.84 1390.92 839.02 1383.07C880.64 1369.57 928.98 1331.34 939.36 1285.13Z" fill="white"/>
</g>
</g>
</g>
</g>
<path d="M457.387 381.233C468.72 407.04 463.981 436.713 458.677 463.384C455.929 477.195 451.923 490.669 444.772 502.932C438.377 513.892 430.151 523.667 421.481 532.938C412.888 542.13 403.807 550.863 395.199 560.04C386.331 569.503 377.707 579.507 371.755 591.066C365.444 603.323 363.536 616.677 363.009 630.27C362.49 643.771 362.475 657.212 360.865 670.653C357.728 696.932 350.25 723.096 336.193 745.8C334.498 748.535 332.713 751.209 330.835 753.831C330.477 754.336 331.316 754.813 331.675 754.314C347.06 732.849 356.034 707.615 360.384 681.814C362.605 668.621 363.574 655.304 363.856 641.944C364.169 627.54 364.23 612.78 369.405 599.099C374.289 586.169 383.034 575.08 392.261 564.886C400.861 555.391 410.088 546.482 418.94 537.219C427.632 528.124 436.004 518.632 442.796 508.047C450.145 496.604 454.907 484.098 457.944 470.92C461.05 457.454 463.332 443.595 464.4 429.823C465.431 416.593 464.889 402.855 460.882 390.106C459.928 387.068 458.761 384.105 457.425 381.213C457.418 381.19 457.379 381.209 457.387 381.233Z" fill="#FFA7A7"/>
<path d="M455.398 477.073C454.52 462.78 448.858 447.787 434.884 441.438C430.962 439.655 426.826 438.381 422.827 436.787C418.828 435.193 414.905 433.417 411.067 431.478C403.519 427.663 396.292 423.249 389.493 418.237C381.655 412.457 374.596 405.907 368.026 398.767C367.743 398.457 367.278 398.721 367.247 399.086C366.614 407.377 366.003 415.814 367.72 424.025C369.285 431.507 373.116 438.046 378.816 443.199C391.698 454.851 409.815 458.056 425.635 464.088C435.67 467.914 445.416 472.425 454.841 477.545C455.36 477.829 455.833 477.036 455.306 476.753C447.652 472.625 439.784 468.897 431.725 465.608C423.521 462.263 415.111 459.594 406.709 456.815C391.073 451.646 374.161 443.89 369.132 426.947C366.461 417.934 367.308 408.302 368.163 399.086C367.904 399.189 367.644 399.298 367.385 399.402C378.03 411.353 390.935 421.53 404.931 429.411C411.845 433.303 419.095 436.597 426.559 439.335C430.901 440.926 435.342 442.409 439.196 445.007C442.44 447.193 445.172 449.976 447.331 453.206C452.04 460.239 454.2 468.765 455.024 477.073C455.047 477.307 455.413 477.316 455.398 477.073Z" fill="#FFA7A7"/>
<path d="M370.262 401.71C369.277 418.066 376.985 433.866 390.722 443.065C403.581 451.679 418.912 455.003 433.084 460.795C441.493 464.229 449.468 468.748 455.787 475.284C456.046 475.557 456.474 475.143 456.207 474.87C445.996 464.308 431.313 459.556 417.729 454.785C402.642 449.483 387.379 443.331 378.221 429.587C372.666 421.257 369.842 411.697 370.315 401.71C370.315 401.674 370.262 401.676 370.262 401.71Z" fill="#FFA7A7"/>
<path d="M371.19 403.559C375.464 410.254 377.586 417.948 381.775 424.671C385.324 430.366 390.04 435.339 395.504 439.283C401.396 443.536 407.997 446.301 415.063 448C419.429 449.049 423.855 449.967 427.877 452.029C431.204 453.727 434.173 456.012 437.027 458.385C442.796 463.187 448.283 468.542 455.525 471.11C455.945 471.26 456.136 470.589 455.708 470.441C448.871 468.069 443.582 463.129 438.156 458.585C432.814 454.108 427.358 450.586 420.505 448.799C416.552 447.765 412.53 447.033 408.668 445.675C405.265 444.475 401.998 442.908 398.923 441.027C392.688 437.209 387.247 432.089 383.149 426.076C380.867 422.733 379.127 419.134 377.532 415.435C375.769 411.337 374.121 407.025 371.343 403.471C371.274 403.386 371.129 403.461 371.19 403.559Z" fill="#FFA7A7"/>
<path d="M378.235 407.939C385.386 420.259 395.063 431.917 408.112 438.425C414.439 441.578 421.345 442.786 428.076 444.782C435.204 446.899 441.103 450.34 444.377 457.176C447.185 463.033 448.574 471.05 454.794 474.496C455.282 474.764 455.656 474.083 455.221 473.772C449.665 469.815 448.193 463.37 445.483 457.524C442.873 451.873 438.745 448.025 432.907 445.679C426.42 443.071 419.361 442.273 412.813 439.857C405.693 437.232 399.351 432.9 393.903 427.721C387.775 421.898 382.738 415.04 378.357 407.866C378.312 407.784 378.182 407.857 378.235 407.939Z" fill="#FFA7A7"/>
<path d="M356.387 702.293C362.218 695.179 368.124 687.966 375.153 681.954C382.945 675.293 391.904 670.799 402.191 669.525C412.814 668.211 423.536 668.993 434.128 667.236C443.454 665.689 452.833 663.014 461.083 658.351C469.042 653.852 475.941 647.291 478.772 638.495C478.925 638.029 478.177 637.7 477.963 638.156C468.722 657.726 458.587 678.792 439.066 690.296C434.479 693 429.55 695.096 424.337 696.283C418.408 697.628 412.295 697.804 406.236 697.678C395.651 697.459 384.974 696.246 374.489 698.288C365.201 700.096 356.135 704.341 350.992 712.505C350.778 712.848 351.328 713.161 351.541 712.82C363.347 694.094 389.462 698.165 408.235 698.243C418.843 698.286 429.252 696.686 438.532 691.371C447.087 686.476 454.252 679.414 460.121 671.625C467.775 661.464 473.247 649.99 478.726 638.6C478.459 638.488 478.184 638.374 477.917 638.261C471.843 656.66 449.765 663.991 432.266 666.593C421.735 668.155 411.028 667.255 400.52 668.834C391.446 670.194 383.38 674.139 376.366 679.92C368.59 686.331 362.355 694.269 356.326 702.245C356.296 702.28 356.357 702.329 356.387 702.293Z" fill="#FFA7A7"/>
<path d="M354.946 706.955C367.248 693.555 383.701 684.336 401.879 681.548C418.508 678.995 437.701 681.679 452.033 671.244C456.246 668.175 459.58 664.145 462.862 660.16C466.464 655.786 470.341 651.52 473.638 646.914C473.752 646.752 473.493 646.562 473.363 646.706C466.464 654.01 461.214 663.043 453.369 669.462C446.157 675.359 436.808 677.531 427.696 678.537C419.157 679.477 410.533 679.538 402.032 680.87C393.561 682.197 385.35 684.939 377.756 688.875C369.072 693.379 361.189 699.454 354.832 706.843C354.763 706.92 354.877 707.033 354.946 706.955Z" fill="#FFA7A7"/>
<path d="M358.386 705.372C369.765 692.987 387.622 691.905 403.419 691.027C411.806 690.562 420.323 690.016 428.397 687.56C436.761 685.017 443.477 680.144 449.727 674.233C457.167 667.193 463.936 659.44 469.988 651.214C470.164 650.979 469.767 650.75 469.591 650.986C464.059 658.63 457.885 665.766 451.07 672.327C444.339 678.799 436.99 684.353 427.878 687.054C411.905 691.792 394.811 689.258 378.709 693.41C370.894 695.427 363.454 698.987 358.15 705.136C358.012 705.298 358.241 705.532 358.386 705.372Z" fill="#FFA7A7"/>
<path d="M361.119 701.171C371.383 688.156 386.6 680.947 402.534 677.094C410.936 675.061 419.468 674.162 428.038 673.156C436.975 672.108 445.629 670.253 453.207 665.228C460.876 660.136 467.653 652.941 472.903 645.468C472.972 645.375 472.827 645.267 472.743 645.348C466.455 651.717 461.151 658.852 453.703 664.046C445.591 669.707 436.227 671.628 426.527 672.729C410.448 674.555 394.376 677.027 380.006 684.838C372.55 688.884 365.949 694.224 361.042 701.115C361.012 701.158 361.088 701.213 361.119 701.171Z" fill="#FFA7A7"/>
<path d="M330.791 460.827C330.746 470.805 331.356 481.068 334.928 490.503C338.201 499.15 344.07 505.896 351.236 511.679C358.364 517.426 366.239 522.286 372.787 528.713C379.785 535.586 384.272 544.195 385.264 553.944C386.333 564.531 383.463 575.406 376.732 583.783C376.404 584.193 376.992 584.782 377.328 584.364C388.592 570.457 389.584 549.452 379.228 534.748C368.33 519.27 348.023 513.12 338.377 496.528C332.127 485.772 330.997 472.982 330.891 460.827C330.883 460.767 330.791 460.767 330.791 460.827Z" fill="#FFA7A7"/>
<path d="M330.144 458.594C333.326 467.761 342.949 473.085 351.008 477.582C360.524 482.897 370.56 487.37 379.603 493.477C387.738 498.967 395.278 505.889 399.605 514.762C404.023 523.821 404.168 534.037 401.368 543.586C398.178 554.458 391.607 564.149 383.556 572.11C383.106 572.56 383.808 573.254 384.266 572.806C397.659 559.704 408.449 540.335 403.489 521.251C398.223 500.974 377.725 490.377 360.379 481.574C354.602 478.642 348.825 475.676 343.369 472.194C337.981 468.755 332.685 464.597 330.182 458.582C330.174 458.559 330.136 458.569 330.144 458.594Z" fill="#FFA7A7"/>
<path d="M331.546 460.876C334.271 477.672 343.627 491.761 357.165 502.055C364.346 507.518 372.122 512.426 377.838 519.493C383.112 526.007 386.569 533.912 388.072 542.099C389.736 551.227 388.789 560.429 385.653 569.142C385.477 569.634 386.24 569.819 386.431 569.355C392.292 554.956 390.178 537.708 382.158 524.526C377.731 517.247 371.451 511.766 364.621 506.719C356.951 501.047 349.358 495.574 343.558 487.928C337.506 479.958 333.431 470.641 331.676 460.841C331.661 460.757 331.531 460.792 331.546 460.876Z" fill="#FFA7A7"/>
<path d="M333.47 464.622C336.996 479.477 348.062 490.741 359.974 499.778C372.894 509.587 390.08 516.987 393.377 534.439C395.193 544.061 392.988 553.968 389.104 562.829C388.92 563.256 389.554 563.631 389.745 563.198C396.125 549.053 397.43 531.425 386.41 519.147C381.014 513.134 373.887 509.008 367.255 504.489C360.364 499.796 353.678 494.713 347.879 488.736C341.247 481.908 335.92 473.832 333.562 464.597C333.547 464.537 333.455 464.563 333.47 464.622Z" fill="#FFA7A7"/>
<path d="M337.757 470.993C341.84 477.603 346.831 483.615 352.661 488.803C358.308 493.837 364.642 497.785 371.305 501.372C377.616 504.767 384.194 508.097 389.299 513.194C395.473 519.366 397.572 527.662 398.06 536.107C398.64 546.264 396.542 555.991 392.749 565.388C392.657 565.617 393.047 565.78 393.153 565.556C396.87 557.85 398.64 549.127 398.785 540.62C398.915 532.705 397.946 523.955 393.398 517.215C389.544 511.49 383.614 507.608 377.646 504.287C370.778 500.464 363.727 497.087 357.446 492.33C349.662 486.439 343.015 479.162 337.81 470.958C337.795 470.922 337.734 470.956 337.757 470.993Z" fill="#FFA7A7"/>
<path d="M345.2 472.984C352.298 480.75 361.219 486.471 370.209 491.868C374.749 494.589 379.343 497.218 383.831 500.011C388.524 502.93 392.805 506.302 397.331 509.431C397.598 509.613 397.903 509.209 397.674 508.991C394.072 505.562 389.524 502.843 385.319 500.204C380.74 497.331 376.054 494.64 371.391 491.908C362.051 486.444 352.893 480.614 345.208 472.974C345.2 472.967 345.193 472.977 345.2 472.984Z" fill="#FFA7A7"/>
<path d="M332.523 464.842C335.507 479.295 342.52 492.633 351.915 504.039C356.776 509.943 362.248 515.356 368.139 520.263C374.359 525.452 381.525 529.322 383.883 537.593C385.295 542.531 385.455 547.899 385.897 552.99C386.371 558.413 386.516 563.872 387.21 569.271C387.241 569.544 387.645 569.561 387.653 569.271C387.775 564.531 387.271 559.793 386.828 555.076C386.409 550.628 386.004 546.154 385.287 541.743C384.692 538.061 383.608 534.617 381.311 531.608C379.029 528.603 376.06 526.16 373.183 523.73C367.315 518.779 361.492 513.893 356.295 508.233C351.014 502.474 346.267 496.18 342.345 489.439C337.88 481.758 334.538 473.47 332.615 464.816C332.6 464.76 332.508 464.785 332.523 464.842Z" fill="#FFA7A7"/>
<path d="M385.83 598.441C385.861 598.441 385.861 598.385 385.83 598.385C385.791 598.385 385.791 598.441 385.83 598.441Z" fill="#FFA7A7"/>
<path d="M368.383 616.989C380.868 599.863 400.542 588.95 421.803 587.191C443.904 585.361 466.371 591.216 488.09 584.99C497.652 582.25 506.443 577.219 512.365 569.178C512.129 569.079 511.892 568.982 511.663 568.885C506.802 589.282 490.066 606.334 469.576 611.86C456.481 615.39 442.775 613.428 429.42 613.046C416.584 612.677 403.404 613.285 391.163 617.474C379.884 621.332 369.582 628.211 363.171 638.296C363.431 638.363 363.683 638.432 363.942 638.5C364.553 624.788 370.833 611.824 381.09 602.578C381.357 602.336 380.96 601.949 380.685 602.185C370.101 611.359 363.774 624.63 363.118 638.5C363.095 638.919 363.675 639.027 363.881 638.705C378.198 616.473 407.105 613.216 431.427 614.124C444.324 614.604 457.503 616.197 470.118 612.674C479.772 609.979 488.647 604.754 495.821 597.857C503.971 590.027 509.855 580.041 512.404 569.085C512.503 568.651 511.953 568.452 511.701 568.794C499.415 585.397 476.528 587.75 457.32 587.09C444.949 586.664 432.533 585.319 420.163 586.572C410.211 587.583 400.58 590.507 391.865 595.37C382.334 600.683 374.336 607.959 368.208 616.886C368.132 616.996 368.307 617.092 368.383 616.989Z" fill="#FFA7A7"/>
<path d="M364.088 639.41C371.368 619.331 388.737 603.714 410.296 600.153C435.281 596.028 461.892 607.064 486.053 597.042C495.829 592.987 505.154 585.138 507.36 574.494C507.39 574.325 507.146 574.258 507.093 574.423C503.697 584.874 495.378 592.554 485.19 596.615C473.247 601.37 459.915 600.897 447.316 599.953C434.442 598.991 421.346 597.383 408.541 599.838C398.757 601.712 389.607 606.189 381.999 612.522C373.581 619.523 366.904 628.857 363.836 639.342C363.79 639.5 364.034 639.561 364.088 639.41Z" fill="#FFA7A7"/>
<path d="M361.834 638.13C375.227 620.588 395.573 609.018 417.955 607.831C441.155 606.599 466.217 614.544 487.386 601.587C496.49 596.017 504.313 587.194 507.632 577.038C507.709 576.826 507.358 576.674 507.266 576.884C503.023 586.574 496.635 594.868 487.539 600.604C477.244 607.095 465.224 608.713 453.22 608.454C440.941 608.187 428.693 606.319 416.406 607.283C406.188 608.085 396.198 611.027 387.17 615.797C377.097 621.115 368.107 628.693 361.651 638.029C361.582 638.139 361.75 638.232 361.834 638.13Z" fill="#FFA7A7"/>
<path d="M366.826 633.653C366.788 621.5 375.976 611.198 385.554 604.591C394.887 598.153 405.975 594.397 417.232 592.99C440.66 590.061 464.974 599.084 487.777 590.791C497.331 587.318 505.871 581.009 509.793 571.501C509.961 571.098 509.297 570.921 509.129 571.322C505.161 580.991 496.209 587.278 486.472 590.59C475.116 594.456 463.127 594.083 451.314 593.167C439.019 592.213 426.695 590.855 414.423 592.813C403.61 594.539 393.033 598.471 384.165 604.903C374.877 611.645 366.552 621.703 366.788 633.653C366.788 633.68 366.826 633.68 366.826 633.653Z" fill="#FFA7A7"/>
<path d="M463.974 384.84C460.296 372.68 451.512 362.484 439.935 356.894C426.748 350.527 411.447 350.14 398.512 343.17C391.827 339.567 385.905 334.304 383.333 327.058C383.188 326.651 382.608 326.727 382.578 327.16C381.601 340.51 388.049 353.787 398.97 361.674C405.602 366.458 413.577 368.363 421.399 370.315C429.732 372.392 438.104 374.836 445.514 379.241C453.237 383.829 459.769 390.737 462.234 399.442C462.341 399.823 462.921 399.835 463.028 399.442C465.317 390.523 463.967 381.011 459.075 373.157C458.884 372.854 458.403 373.129 458.587 373.44C463.143 381.264 464.524 390.474 462.234 399.226H463.028C459.022 384.526 444.926 376.325 431.136 371.961C422.78 369.319 413.859 368.107 405.831 364.526C399.084 361.515 393.422 356.495 389.469 350.332C385.05 343.437 382.814 335.312 383.348 327.16C383.097 327.194 382.845 327.228 382.593 327.261C386.668 338.936 398.527 345.228 409.829 348.608C417.133 350.79 424.657 352.167 431.907 354.536C439.058 356.871 445.606 360.344 451.108 365.467C456.793 370.767 461.219 377.594 463.784 384.892C463.822 385.013 464.012 384.963 463.974 384.84Z" fill="#FFA7A7"/>
<path d="M462.311 399.802C462.723 386.944 454.993 374.14 444.019 367.455C430.183 359.017 412.669 360.431 398.658 352.401C390.836 347.924 385.463 340.564 385.043 331.522C385.036 331.345 384.792 331.353 384.769 331.522C383.998 337.901 387.508 344.05 392.026 348.389C397.33 353.493 404.397 356.266 411.44 358.142C419.232 360.22 427.283 361.313 434.922 363.954C442.439 366.553 449.04 370.872 453.879 377.166C458.954 383.761 461.525 391.591 462.052 399.802C462.06 399.964 462.304 399.966 462.311 399.802Z" fill="#FFA7A7"/>
<path d="M463.93 399.386C460.099 386.636 449.919 375.885 437.754 370.391C424.117 364.232 407.19 365.095 395.484 354.922C388.852 349.168 385.639 341.47 384.464 333.015C384.433 332.79 384.067 332.85 384.067 333.069C384.014 339.544 386.891 346.192 390.897 351.22C395.278 356.721 401.307 360.296 407.938 362.576C415.188 365.072 422.827 366.232 430.191 368.362C437.525 370.481 444.226 373.907 449.926 378.969C456.237 384.585 460.748 391.622 463.731 399.44C463.777 399.558 463.968 399.512 463.93 399.386Z" fill="#FFA7A7"/>
<path d="M461.541 395.664C465.944 382.282 454.024 369.034 443.233 362.68C436.723 358.847 429.542 356.796 422.201 355.17C414.264 353.415 405.992 352.004 398.81 348.057C391.591 344.096 385.226 337.635 384.44 329.177C384.402 328.745 383.715 328.742 383.753 329.177C385.051 342.768 398.742 350.017 410.7 353.153C418.621 355.232 426.825 356.331 434.533 359.186C441.34 361.712 447.705 365.615 452.742 370.825C458.854 377.159 464.204 386.722 461.502 395.654C461.495 395.679 461.533 395.689 461.541 395.664Z" fill="#FFA7A7"/>
<path d="M299.753 588.615C295.617 597.534 293.427 606.763 294.389 616.622C295.297 625.906 298.96 634.488 304.187 642.194C315.039 658.203 331.164 670.004 341.169 686.646C347.175 696.639 350.945 708.191 348.381 719.819C348.259 720.371 349.121 720.606 349.236 720.054C353.334 700.934 341.284 683.111 328.89 669.601C316.207 655.775 300.883 642.431 296.029 623.662C293.091 612.305 294.106 599.059 299.807 588.644C299.822 588.61 299.769 588.581 299.753 588.615Z" fill="#FFA7A7"/>
<path d="M299.748 588.325C298.832 597.157 304.937 604.691 311.241 610.211C314.881 613.399 318.803 616.257 322.383 619.514C325.74 622.569 328.732 625.998 331.311 629.716C341.186 643.94 345.147 661.309 347.963 678.059C349.817 689.081 352.466 700.686 349.573 711.723C349.428 712.284 350.252 712.496 350.443 711.961C353.694 702.853 351.367 692.529 349.955 683.276C348.635 674.592 347.139 665.904 344.796 657.425C342.613 649.511 339.729 641.726 335.585 634.593C331.143 626.94 325.305 620.667 318.368 615.141C309.676 608.217 299.603 600.49 299.801 588.325C299.801 588.29 299.748 588.292 299.748 588.325Z" fill="#FFA7A7"/>
<path d="M300.983 595.498C302.487 610.522 314.773 621.039 322.641 633.051C331.738 646.937 335.164 663.356 339.934 678.966C341.292 683.402 342.758 687.814 344.513 692.115C346.047 695.888 347.657 700.192 350.267 703.37C350.412 703.537 350.717 703.357 350.641 703.156C349.259 699.518 347.161 696.128 345.665 692.514C344.124 688.759 342.773 684.927 341.544 681.06C339.102 673.394 337.095 665.6 334.638 657.938C332.31 650.664 329.586 643.461 325.755 636.813C321.985 630.271 317.009 624.567 312.377 618.622C307.02 611.745 302.052 604.318 301.037 595.498C301.029 595.465 300.976 595.463 300.983 595.498Z" fill="#FFA7A7"/>
<path d="M300.152 590.88C297.458 605.219 306.074 618.94 312.255 631.271C315.842 638.429 319.429 645.585 323.054 652.725C326.725 659.969 330.159 667.408 334.188 674.466C334.448 674.916 335.081 674.523 334.875 674.07C331.769 667.173 328.06 660.501 324.618 653.761C321.115 646.883 317.574 640.018 314.033 633.159C307.394 620.3 297.862 605.992 300.213 590.898C300.221 590.856 300.16 590.839 300.152 590.88Z" fill="#FFA7A7"/>
<path d="M300.289 598.485C299.945 596.913 299.602 595.341 299.266 593.768C299.251 593.689 299.114 593.686 299.098 593.768C296.183 611.111 301.365 628.577 309.927 643.668C314.384 651.516 319.787 658.803 325.518 665.779C331.196 672.679 337.462 679.104 342.941 686.156C348.863 693.788 353.571 702.329 353.449 712.178C353.442 712.807 354.411 712.802 354.434 712.178C355.136 695.316 340.781 682.188 330.593 670.39C318.314 656.17 306.837 640.571 301.579 622.38C300.068 617.153 299.091 611.785 298.778 606.357C298.64 603.892 298.572 601.422 298.724 598.955C298.785 597.917 298.671 596.239 299.068 595.263C299.61 593.959 299.411 595.078 299.579 595.765C299.8 596.676 300.022 597.587 300.243 598.497C300.251 598.52 300.289 598.512 300.289 598.485Z" fill="#FFA7A7"/>
<path d="M246.419 607.942C250.365 593.488 251.8 578.48 250.746 563.545C250.228 556.143 249.09 548.791 247.381 541.564C246.526 537.963 245.527 534.396 244.374 530.876C243.535 528.313 242.68 525.551 240.894 523.455C239.292 521.586 237.04 520.53 234.56 521.134C232.53 521.63 230.959 523.059 230.896 525.18C231.169 525.143 231.441 525.108 231.716 525.07C230.421 520.12 228.684 515.289 226.613 510.601C224.784 506.46 222.855 501.816 219.699 498.454C217.457 496.063 214.219 494.694 211.01 496.043C207.482 497.526 205.414 501.27 203.821 504.495H204.504C200.143 494.476 193.506 485.486 185.178 478.313C181.135 474.832 176.683 471.653 171.912 469.211C168.398 467.41 162.659 466.552 161.287 471.426C161.608 471.387 161.928 471.346 162.25 471.302C159.281 464.415 153.242 459.072 146.231 456.348C142.561 454.92 138.578 454.221 134.633 454.43C133.414 454.497 132.947 454.583 132.063 453.737C131.265 452.975 130.603 452.025 129.848 451.212C128.246 449.488 126.528 447.863 124.679 446.394C118.646 441.592 111.066 438.478 103.236 439.917C96.3531 441.182 89.8885 445.865 88.4912 452.925C86.5635 462.67 94.1209 471.405 100.356 477.997L100.925 477.035C97.2902 475.958 93.0144 474.755 89.4566 476.718C86.8505 478.155 85.0449 481.06 86.1758 483.99C87.4121 487.197 90.7952 489.758 93.5677 491.64C97.2033 494.107 101.251 495.889 105.273 497.647C105.319 497.297 105.365 496.947 105.412 496.596C100.146 498.04 94.3994 499.668 90.8859 504.11C87.6243 508.231 87.477 513.168 90.6364 517.382C97.5108 526.552 108.045 533.312 117.987 538.81C124.137 542.211 130.482 545.271 136.838 548.275C136.922 547.969 137.006 547.663 137.089 547.357C132.009 546.966 125.708 546.748 121.467 550.052C116.996 553.531 117.203 559.71 120.091 564.135C123.848 569.893 131.202 573.013 137.132 576.055C143.977 579.566 151.003 582.735 158.171 585.555C166.627 588.879 175.288 591.72 184.088 594.017V593.056C179.366 594.236 174.62 595.354 169.913 596.603C167.187 597.323 164.002 598.366 162.285 600.742C158.306 606.247 165.742 610.445 170.034 612.09C185.203 617.901 201.792 618 217.675 620.51C226.689 621.936 235.568 624.187 243.573 628.632C243.993 628.863 244.451 628.567 244.473 628.121C245.58 610.894 248.251 593.963 252.96 577.325C253.036 577.039 252.586 576.919 252.509 577.204C247.64 593.751 244.374 610.912 243.275 628.121C243.581 627.951 243.878 627.779 244.183 627.611C231.762 620.721 217.525 619.103 203.597 617.632C196.218 616.854 188.819 616.072 181.561 614.497C178.068 613.736 174.611 612.794 171.25 611.58C168.055 610.424 163.672 608.867 162.408 605.389C160.714 600.73 166.326 598.458 169.884 597.527C174.683 596.268 179.535 595.185 184.358 594.017C184.846 593.899 184.831 593.181 184.358 593.056C170.82 589.456 157.621 584.773 144.944 578.853C138.918 576.039 132.77 573.113 127.182 569.51C121.85 566.076 115.76 558.908 120.306 552.481C123.893 547.411 131.6 547.807 137.089 548.343C137.58 548.39 137.776 547.632 137.342 547.424C124.987 541.508 112.445 535.567 101.777 526.896C99.2255 524.824 96.7972 522.602 94.5391 520.218C92.0032 517.544 89.1407 514.484 89.3864 510.558C89.8954 502.414 99.1264 499.506 105.722 497.705C106.166 497.583 106.339 496.862 105.863 496.653C100.16 494.153 94.2079 491.558 89.7962 487.066C87.1031 484.321 85.5539 480.777 89.3337 478.104C92.6809 475.741 97.0361 477.066 100.614 478.145C101.193 478.32 101.564 477.589 101.181 477.181C95.6166 471.24 88.8964 463.715 89.3795 455.045C89.8015 447.453 96.3478 442.273 103.519 440.932C111.536 439.431 119.307 443.073 125.238 448.191C126.686 449.441 128.049 450.779 129.341 452.184C130.123 453.035 131.387 455.296 132.468 455.637C132.943 455.787 134.131 455.468 134.633 455.439C135.534 455.387 136.435 455.381 137.335 455.421C139.29 455.51 141.233 455.827 143.121 456.334C151.258 458.526 157.965 464.211 161.339 471.829C161.527 472.254 162.193 472.102 162.305 471.703C163.367 467.841 167.947 468.432 170.772 469.735C172.914 470.722 174.954 471.991 176.929 473.269C180.891 475.833 184.584 478.794 187.96 482.074C194.684 488.603 200.045 496.365 203.821 504.891C203.935 505.154 204.385 505.139 204.504 504.891C206.01 501.801 207.927 498.121 211.297 496.714C215.663 494.891 219.221 498.503 221.311 501.881C225.741 509.041 228.626 517.254 230.912 525.29C231.038 525.736 231.724 525.647 231.73 525.18C231.748 523.077 233.644 521.863 235.613 521.687C237.552 521.514 239.193 522.508 240.414 523.929C242.901 526.837 243.863 531.121 244.947 534.686C247.35 542.61 248.999 550.747 249.876 558.972C251.632 575.332 250.35 591.954 246.252 607.897C246.221 608.003 246.389 608.048 246.419 607.942Z" fill="#FFA7A7"/>
<path d="M252.187 690.457C251.401 671.6 249.234 652.788 244.548 634.46C240.015 616.7 233.002 599.781 223.589 583.996C204.751 552.408 177.87 526.537 151.183 501.443C143.233 493.968 135.248 486.531 127.406 478.945C119.371 471.172 111.778 463.003 103.869 455.117C103.448 454.699 102.858 455.315 103.225 455.752C109.441 463.153 116.538 469.92 123.462 476.672C130.416 483.451 137.5 490.1 144.593 496.735C158.449 509.698 172.377 522.609 185.414 536.382C210.302 562.674 231.67 592.266 242.03 627.132C248.143 647.688 250.913 669.11 252.042 690.457C252.042 690.553 252.195 690.555 252.187 690.457Z" fill="#FFA7A7"/>
<path d="M117.201 467.175C116.41 464.122 115.669 461.07 115.252 457.942C115.052 456.429 114.912 454.909 114.83 453.384C114.75 451.864 114.822 450.322 114.667 448.809C114.644 448.598 114.289 448.502 114.255 448.751C113.839 451.698 114.282 454.912 114.685 457.839C115.126 461.03 115.778 464.227 116.852 467.27C116.928 467.485 117.259 467.399 117.201 467.175Z" fill="#FFA7A7"/>
<path d="M130.021 482.056C126.122 481.818 122.167 482.19 118.319 482.838C114.5 483.481 110.572 484.381 107.026 485.953C106.63 486.13 106.914 486.748 107.318 486.638C110.997 485.621 114.592 484.467 118.353 483.754C122.218 483.021 126.105 482.688 130.021 482.378C130.229 482.363 130.232 482.07 130.021 482.056Z" fill="#FFA7A7"/>
<path d="M140.804 490.483C141.107 482.855 142.074 475.365 143.105 467.809C143.124 467.668 142.918 467.6 142.88 467.748C140.956 475.09 140.338 482.918 140.478 490.483C140.482 490.69 140.796 490.688 140.804 490.483Z" fill="#FFA7A7"/>
<path d="M141.487 480.805C140.495 478.105 139.673 475.346 139.048 472.542C138.421 469.741 138.059 466.897 137.559 464.075C137.538 463.958 137.352 463.988 137.354 464.101C137.369 469.797 139.096 475.623 141.205 480.882C141.273 481.051 141.552 480.98 141.487 480.805Z" fill="#FFA7A7"/>
<path d="M157.181 507.671C150.314 506.609 143.395 506.738 136.548 507.947C129.687 509.156 122.399 511.25 116.515 515.033C116.277 515.187 116.484 515.507 116.733 515.401C123.198 512.658 129.436 510.016 136.398 508.722C143.217 507.456 150.247 507.252 157.154 507.876C157.27 507.886 157.299 507.692 157.181 507.671Z" fill="#FFA7A7"/>
<path d="M143.904 499.587C141.805 499.639 139.677 500.237 137.617 500.617C135.368 501.029 133.124 501.455 130.879 501.892C126.398 502.763 121.888 503.537 117.468 504.675C117.375 504.698 117.391 504.858 117.49 504.844C121.865 504.278 126.184 503.366 130.516 502.543C132.759 502.116 135.004 501.683 137.244 501.235C139.439 500.793 141.829 500.542 143.927 499.765C144.021 499.732 144.014 499.583 143.904 499.587Z" fill="#FFA7A7"/>
<path d="M163.833 515.013C163.189 509.045 164.265 503.163 165.39 497.317C166.397 492.076 167.736 486.502 166.976 481.15C166.954 480.99 166.71 481.039 166.703 481.188C166.409 487.225 165.495 493.011 164.394 498.949C163.405 504.281 162.648 509.656 163.456 515.063C163.487 515.272 163.856 515.225 163.833 515.013Z" fill="#FFA7A7"/>
<path d="M164.849 497.03C163.908 493.57 163.102 490.076 162.71 486.511C162.331 483.049 162.367 479.583 162.378 476.111C162.379 476.009 162.212 475.981 162.194 476.085C161.651 479.595 161.776 483.187 162.191 486.706C162.61 490.25 163.337 493.751 164.567 497.106C164.632 497.277 164.898 497.21 164.849 497.03Z" fill="#FFA7A7"/>
<path d="M178.112 524.54C178.789 519.703 179.914 514.87 181.356 510.197C182.056 507.931 182.855 505.691 183.75 503.494C184.707 501.142 185.977 498.906 186.887 496.545C187.027 496.185 186.476 495.997 186.281 496.292C184.968 498.278 184.086 500.623 183.185 502.815C182.218 505.169 181.364 507.567 180.621 509.999C179.171 514.752 178.297 519.564 177.803 524.5C177.787 524.671 178.089 524.715 178.112 524.54Z" fill="#FFA7A7"/>
<path d="M194.087 499.714C190.383 504.237 186.706 508.782 183.105 513.385C181.68 515.211 180.289 517.114 179.387 519.254C178.688 520.909 177.982 523.341 178.834 525.058C178.901 525.195 179.097 525.117 179.106 524.986C179.174 523.761 178.952 522.645 179.217 521.409C179.477 520.203 179.967 519.055 180.556 517.97C181.651 515.949 183.095 514.145 184.51 512.337C187.764 508.175 190.98 503.988 194.161 499.769C194.193 499.729 194.121 499.674 194.087 499.714Z" fill="#FFA7A7"/>
<path d="M213.805 512.844C213.241 519.54 212.373 525.999 210.001 532.34C207.607 538.742 204.049 544.693 199.59 549.906C199.359 550.175 199.75 550.568 199.984 550.297C208.683 540.323 214.833 526.205 213.91 512.844C213.906 512.777 213.812 512.777 213.805 512.844Z" fill="#FFA7A7"/>
<path d="M205.758 540.029C205.397 534.381 205.17 528.713 205.262 523.054C205.355 517.373 205.962 511.765 206.389 506.105C206.408 505.864 205.996 505.804 205.954 506.047C205.035 511.52 204.825 517.181 204.734 522.721C204.643 528.51 204.869 534.279 205.548 540.029C205.563 540.159 205.766 540.166 205.758 540.029Z" fill="#FFA7A7"/>
<path d="M219.196 576.695C220.246 570.137 222.631 563.922 224.841 557.683C227.136 551.2 229.59 544.735 231.575 538.152C231.631 537.965 231.353 537.899 231.283 538.072C228.642 544.573 226.451 551.27 224.121 557.884C221.959 564.02 219.673 570.167 218.979 576.666C218.965 576.787 219.178 576.816 219.196 576.695Z" fill="#FFA7A7"/>
<path d="M225.438 588.155C226.68 584.971 228.015 581.797 229.472 578.703C230.893 575.687 232.697 572.849 234.063 569.813C234.116 569.683 233.948 569.511 233.841 569.646C231.735 572.29 230.271 575.502 228.869 578.55C227.435 581.664 226.265 584.833 225.348 588.129C225.332 588.19 225.416 588.208 225.438 588.155Z" fill="#FFA7A7"/>
<path d="M224.445 556.422C225.38 555.907 226.088 555.046 226.829 554.296C227.616 553.499 228.385 552.68 229.134 551.845C230.607 550.205 232.019 548.501 233.293 546.699C235.636 543.377 238.063 539.102 238.116 534.931C238.116 534.615 237.636 534.549 237.552 534.855C236.995 536.931 236.582 538.965 235.69 540.942C234.827 542.879 233.736 544.716 232.523 546.457C231.254 548.258 229.85 549.959 228.385 551.603C227.677 552.397 226.958 553.182 226.243 553.967C225.565 554.707 224.78 555.401 224.318 556.296C224.275 556.377 224.361 556.467 224.445 556.422Z" fill="#FFA7A7"/>
<path d="M209.513 565.382C206.941 565.173 204.296 565.444 201.713 565.449C199.11 565.454 196.508 565.38 193.909 565.233C188.355 564.922 182.828 564.318 177.352 563.343C172.23 562.429 167.163 561.218 162.186 559.713C157.085 558.172 152.238 555.897 147.152 554.368C146.844 554.276 146.665 554.714 146.935 554.872C151.365 557.471 156.663 558.997 161.568 560.477C166.921 562.089 172.377 563.366 177.893 564.293C183.057 565.164 188.284 565.761 193.517 565.994C198.671 566.224 204.471 566.639 209.534 565.529C209.621 565.508 209.595 565.389 209.513 565.382Z" fill="#FFA7A7"/>
<path d="M175.304 561.999C173.069 561.279 171.46 559.427 169.791 557.884C168.228 556.438 166.555 555.11 164.794 553.908C161.193 551.456 157.197 549.476 152.945 548.427C152.759 548.384 152.694 548.641 152.866 548.705C157.185 550.282 161.356 552.173 165.132 554.795C166.993 556.086 168.71 557.538 170.358 559.08C171.812 560.436 173.282 561.648 175.27 562.12C175.35 562.139 175.383 562.024 175.304 561.999Z" fill="#FFA7A7"/>
<path d="M187.715 535.841C185.289 536.205 183.07 534.638 180.848 533.916C178.845 533.268 176.775 532.827 174.707 532.434C170.437 531.625 166.134 530.96 161.848 530.244C157.865 529.578 153.862 528.766 149.814 528.637C146.506 528.53 142.144 528.54 139.126 530.057C139.014 530.116 139.067 530.3 139.191 530.293C141.21 530.194 143.194 529.543 145.217 529.342C147.266 529.14 149.328 529.123 151.381 529.282C155.925 529.634 160.442 530.616 164.927 531.386C169.164 532.114 173.456 532.689 177.644 533.659C179.683 534.131 181.619 534.811 183.589 535.491C185.011 535.981 186.26 536.305 187.744 535.942C187.811 535.926 187.78 535.831 187.715 535.841Z" fill="#FFA7A7"/>
<path d="M156.164 528.119C152.265 526.7 148.402 525.185 144.578 523.578C142.75 522.809 140.943 521.994 139.123 521.212C137.357 520.456 135.609 519.551 133.794 518.917C133.575 518.841 133.458 519.162 133.642 519.274C135.413 520.376 137.437 521.227 139.338 522.09C141.042 522.863 142.769 523.59 144.497 524.307C148.287 525.886 152.124 527.347 155.997 528.717C156.379 528.853 156.539 528.255 156.164 528.119Z" fill="#FFA7A7"/>
<path d="M127.191 510.902C126.262 512.012 125.399 513.177 124.385 514.218C123.36 515.269 122.236 516.228 121.03 517.074C119.866 517.891 118.628 518.606 117.334 519.208C115.958 519.847 114.518 520.303 113.11 520.862C112.966 520.918 112.965 521.179 113.149 521.155C116.077 520.803 118.955 519.229 121.309 517.542C123.668 515.852 126.072 513.653 127.384 511.048C127.44 510.934 127.285 510.791 127.191 510.902Z" fill="#FFA7A7"/>
<path d="M228.969 598.249C223.633 596.005 218.022 594.63 212.244 594.111C209.237 593.841 206.205 593.793 203.192 594.005C200.622 594.187 197.426 594.261 195.073 595.35C194.969 595.398 195.025 595.55 195.129 595.554C196.354 595.575 197.56 595.247 198.769 595.066C200.335 594.834 201.911 594.674 203.495 594.57C206.307 594.386 209.131 594.389 211.941 594.605C217.743 595.05 223.454 596.399 228.884 598.449C229 598.494 229.084 598.299 228.969 598.249Z" fill="#FFA7A7"/>
<path d="M199.48 566.69C193.649 569.762 187.899 572.313 181.327 573.417C174.728 574.525 168.55 573.869 161.982 573.029C161.859 573.014 161.847 573.196 161.953 573.233C167.956 575.228 174.996 575.019 181.168 573.993C187.557 572.93 194.321 570.673 199.54 566.791C199.598 566.746 199.548 566.655 199.48 566.69Z" fill="#FFA7A7"/>
<path d="M247.876 549.143C246.761 552.331 245.502 555.468 244.235 558.598C244.213 558.664 244.327 558.713 244.358 558.649C245.815 555.582 247.029 552.419 248.143 549.218C248.204 549.049 247.929 548.977 247.876 549.143Z" fill="#FFA7A7"/>
<path d="M250.38 562.777C249.457 564.548 248.732 566.442 248.052 568.313C247.35 570.246 246.763 572.225 246.305 574.231C246.282 574.346 246.457 574.395 246.488 574.281C247.076 572.343 247.686 570.415 248.365 568.508C249.044 566.6 249.869 564.755 250.624 562.88C250.685 562.742 250.449 562.646 250.38 562.777Z" fill="#FFA7A7"/>
<path d="M251.051 579.346C250.662 581.565 250.097 583.764 249.326 585.889C248.929 586.991 248.479 588.076 247.975 589.137C247.479 590.171 246.823 591.144 246.365 592.191C246.289 592.37 246.51 592.496 246.632 592.341C247.319 591.453 247.792 590.319 248.265 589.306C248.746 588.287 249.174 587.245 249.555 586.189C250.357 583.982 250.914 581.717 251.234 579.399C251.257 579.277 251.066 579.222 251.051 579.346Z" fill="#FFA7A7"/>
<path d="M223.274 509.475C223.081 511.187 223.088 512.911 222.837 514.625C222.597 516.281 222.24 517.937 221.794 519.554C221.739 519.75 222.03 519.827 222.098 519.637C222.684 517.947 223.097 516.237 223.346 514.47C223.577 512.827 223.773 511.088 223.538 509.44C223.516 509.281 223.29 509.34 223.274 509.475Z" fill="#FFA7A7"/>
<path d="M216.703 496.482C216.288 497.792 216.09 499.183 215.815 500.527C215.537 501.886 215.26 503.237 215.057 504.607C215.029 504.801 215.313 504.889 215.36 504.689C215.697 503.32 215.956 501.938 216.218 500.553C216.471 499.217 216.809 497.867 216.919 496.512C216.93 496.385 216.739 496.369 216.703 496.482Z" fill="#FFA7A7"/>
<path d="M179.597 475.579C179.449 474.989 179.243 474.379 179.185 473.773C179.171 473.636 178.988 473.64 178.971 473.773C178.713 475.818 178.85 477.942 178.836 480.001C178.824 482.053 178.649 484.186 178.922 486.226C178.938 486.356 179.162 486.425 179.185 486.262C179.461 484.25 179.302 482.147 179.297 480.121C179.292 478.024 179.44 475.857 179.185 473.773L178.985 473.826C179.234 474.382 179.357 475.014 179.519 475.601C179.532 475.651 179.609 475.629 179.597 475.579Z" fill="#FFA7A7"/>
<path d="M169.89 470.671C169.827 470.971 169.758 471.194 169.742 471.503C169.724 471.767 169.709 472.035 169.692 472.299C169.656 472.876 169.622 473.449 169.586 474.025C169.516 475.179 169.465 476.321 169.465 477.478C169.465 477.704 169.791 477.693 169.815 477.478C169.939 476.347 170.016 475.226 170.071 474.091C170.1 473.538 170.127 472.985 170.153 472.433C170.166 472.166 170.18 471.9 170.194 471.636C170.199 471.503 170.213 471.37 170.213 471.237C170.213 471.054 170.159 470.889 170.141 470.707C170.129 470.574 169.922 470.522 169.89 470.671Z" fill="#FFA7A7"/>
<path d="M149.646 460.421C149.812 461.646 149.899 462.886 149.919 464.119C149.929 464.729 149.916 465.338 149.88 465.944C149.863 466.247 149.838 466.55 149.815 466.853C149.791 467.151 149.725 467.461 149.791 467.752C149.834 467.939 150.129 467.981 150.218 467.806C150.472 467.304 150.436 466.567 150.467 466.013C150.501 465.383 150.512 464.751 150.5 464.119C150.471 462.852 150.319 461.606 150.071 460.365C150.024 460.133 149.614 460.181 149.646 460.421Z" fill="#FFA7A7"/>
<path d="M139.998 456.498C139.948 457.318 139.9 458.142 139.851 458.963C139.827 459.373 139.816 459.783 139.802 460.195C139.795 460.386 139.786 460.574 139.802 460.764C139.817 460.963 139.806 461.192 139.882 461.377C139.933 461.502 140.114 461.556 140.191 461.418C140.366 461.099 140.38 460.646 140.407 460.291C140.44 459.864 140.476 459.438 140.498 459.01C140.541 458.172 140.583 457.335 140.628 456.498C140.647 456.098 140.021 456.099 139.998 456.498Z" fill="#FFA7A7"/>
<path d="M104.963 440.452C104.963 440.732 104.975 440.989 104.91 441.259C104.854 441.49 104.866 441.721 104.884 441.953C104.927 442.519 104.97 443.084 105.013 443.648C105.096 444.742 105.244 445.824 105.427 446.904C105.463 447.118 105.804 447.062 105.804 446.854C105.806 445.759 105.767 444.675 105.667 443.586L105.517 441.953C105.495 441.714 105.471 441.485 105.386 441.259C105.279 440.978 105.231 440.722 105.179 440.422C105.159 440.299 104.963 440.333 104.963 440.452Z" fill="#FFA7A7"/>
<path d="M98.0847 445.005C98.1732 446.067 98.129 447.108 98.0267 448.165C97.9756 448.685 97.8985 449.199 97.7947 449.712C97.7398 449.979 97.6848 450.249 97.6253 450.517C97.5704 450.763 97.4681 451.017 97.4918 451.272C97.5147 451.509 97.784 451.572 97.926 451.388C98.0816 451.186 98.1236 450.913 98.1908 450.669C98.2602 450.404 98.322 450.14 98.3701 449.87C98.467 449.324 98.5372 448.774 98.5785 448.224C98.6571 447.142 98.5647 446.035 98.4037 444.963C98.3785 444.785 98.0694 444.827 98.0847 445.005Z" fill="#FFA7A7"/>
<path d="M112.377 526.241C110.711 526.437 109.032 526.531 107.357 526.58C106.515 526.605 105.675 526.607 104.833 526.584C104.087 526.564 103.183 526.374 102.46 526.587C102.329 526.627 102.276 526.838 102.419 526.903C103.123 527.22 104.076 527.128 104.833 527.138C105.675 527.148 106.515 527.134 107.357 527.099C109.056 527.023 110.737 526.794 112.411 526.489C112.551 526.465 112.52 526.224 112.377 526.241Z" fill="#FFA7A7"/>
<path d="M100.804 512.542C99.0848 513.299 97.3326 513.963 95.479 514.328C93.6108 514.696 91.7816 514.691 89.8875 514.627C89.5547 514.615 89.4639 515.168 89.8073 515.215C91.6915 515.469 93.6864 515.284 95.5423 514.908C97.4502 514.524 99.3374 513.884 100.992 512.859C101.199 512.731 101.019 512.447 100.804 512.542Z" fill="#FFA7A7"/>
<path d="M96.0866 507.695C94.906 508.13 93.6659 508.374 92.4037 508.404C91.7893 508.418 91.1673 508.386 90.5561 508.308C90.2302 508.268 89.9051 508.214 89.5823 508.156C89.306 508.11 89.0275 508.016 88.7474 508.016C88.5559 508.016 88.4994 508.264 88.652 508.36C89.1404 508.672 89.8555 508.756 90.4263 508.832C91.0819 508.92 91.7412 508.948 92.4037 508.918C93.7071 508.852 94.9877 508.575 96.1973 508.094C96.443 507.998 96.3423 507.601 96.0866 507.695Z" fill="#FFA7A7"/>
<path d="M136.59 568.107C134.247 568.218 131.88 568.038 129.586 567.544C128.487 567.308 127.404 567.002 126.344 566.623C125.264 566.237 124.228 565.62 123.119 565.333C122.97 565.296 122.829 565.495 122.96 565.605C123.773 566.282 124.874 566.646 125.863 567.01C127.03 567.439 128.23 567.783 129.447 568.038C131.803 568.533 134.19 568.68 136.59 568.488C136.835 568.467 136.839 568.095 136.59 568.107Z" fill="#FFA7A7"/>
<path d="M130.188 559.639C128.227 559.458 126.261 559.128 124.344 558.687C123.428 558.475 122.52 558.229 121.619 557.952C120.771 557.691 119.881 557.228 118.995 557.148C118.854 557.138 118.839 557.318 118.93 557.384C119.638 557.9 120.678 558.097 121.512 558.339C122.482 558.622 123.462 558.868 124.451 559.076C126.348 559.473 128.251 559.693 130.188 559.789C130.287 559.794 130.283 559.647 130.188 559.639Z" fill="#FFA7A7"/>
<path d="M181.972 609.172C179.36 609.424 176.742 609.653 174.122 609.81C171.497 609.966 168.856 609.91 166.236 610.131C165.936 610.156 165.938 610.562 166.236 610.591C168.899 610.852 171.615 610.65 174.278 610.465C176.878 610.285 179.454 609.983 182.021 609.534C182.226 609.497 182.181 609.152 181.972 609.172Z" fill="#FFA7A7"/>
<path d="M180.879 603.305C177.811 603.143 174.735 603.084 171.663 603.022C170.189 602.99 168.715 602.961 167.241 602.931C166.503 602.915 165.765 602.901 165.03 602.885C164.826 602.88 162.324 602.901 162.382 602.629C162.356 602.747 162.505 602.803 162.573 602.708C162.592 602.683 162.613 602.656 162.63 602.632C162.657 602.597 162.652 602.541 162.63 602.506C162.367 602.076 161.689 602.491 162.056 602.953C162.385 603.369 163.303 603.216 163.738 603.224C164.906 603.247 166.074 603.27 167.241 603.293C171.784 603.383 176.334 603.524 180.879 603.467C180.984 603.465 180.982 603.31 180.879 603.305Z" fill="#FFA7A7"/>
<path d="M164.426 579.689C161.908 579.983 159.359 580.175 156.824 580.182C154.259 580.187 151.759 579.878 149.212 579.673C148.925 579.651 148.86 580.114 149.143 580.17C151.63 580.657 154.294 580.707 156.824 580.667C159.399 580.627 161.927 580.379 164.453 579.878C164.56 579.858 164.537 579.675 164.426 579.689Z" fill="#FFA7A7"/>
<path d="M27.2946 370.417C26.4849 369.817 25.65 371.16 25.5729 372.156C25.4943 373.189 25.4638 374.224 25.4814 375.258C25.5104 376.832 25.6806 378.493 26.6215 379.762C27.5632 381.032 29.5131 381.691 30.8081 380.773C31.4087 380.346 31.7727 379.659 32.0017 378.963C33.1326 375.536 31.0454 371.403 27.5922 370.229" fill="#F2F0ED"/>
<path d="M40.2798 394.803C38.9405 396.777 39.0069 399.575 40.4386 401.484C41.1491 402.433 42.3717 403.198 43.5057 402.822C44.5474 402.476 45.0808 401.308 45.164 400.227C45.3899 397.348 42.9524 394.524 40.0371 394.281" fill="#F2F0ED"/>
<path d="M43.4212 373.369C43.0473 375.323 42.6855 377.409 43.4609 379.246C44.2362 381.083 46.6325 382.388 48.3336 381.322C50.246 380.122 49.7812 377.192 48.5587 375.31C48.0497 374.528 47.4536 373.804 46.7805 373.153C46.3402 372.725 45.8144 372.309 45.1978 372.295C44.5789 372.281 43.9402 372.892 44.166 373.46" fill="#F2F0ED"/>
<path d="M40.3327 351.096C39.0193 354.535 42.3581 358.286 46.0143 358.986C46.3546 359.051 46.737 359.09 47.0186 358.893C47.2803 358.711 47.3788 358.378 47.4436 358.069C48.1678 354.598 46.4874 350.765 43.4288 348.908C42.9045 348.591 42.2894 348.32 41.6903 348.454C41.0905 348.59 40.6158 349.308 40.9424 349.824" fill="#F2F0ED"/>
<path d="M63.6484 372.614C63.1921 374.347 62.8112 376.157 63.1287 377.92C63.4469 379.683 64.6115 381.406 66.3568 381.903C67.1733 382.134 68.1432 382.052 68.7408 381.455C69.2109 380.988 69.3696 380.302 69.4635 379.653C69.7405 377.737 69.6016 375.682 68.5752 374.034C67.5473 372.384 65.4723 371.283 63.582 371.798" fill="#F2F0ED"/>
<path d="M66.0957 350.271C66.3208 352.075 66.8062 354.035 68.3027 355.1C69.797 356.163 72.4916 355.482 72.5893 353.666C72.6236 353.044 72.3565 352.447 72.0955 351.88C71.6071 350.818 71.0966 349.728 70.2274 348.94C69.3581 348.149 68.0287 347.731 66.9687 348.247" fill="#F2F0ED"/>
<path d="M86.0703 364.556C86.2771 367.029 87.0525 369.452 88.3208 371.593C88.8817 372.534 89.6464 373.496 90.7362 373.68C92.5616 373.988 93.9467 371.907 93.9863 370.081C94.0581 366.702 91.0162 363.565 87.592 363.484" fill="#F2F0ED"/>
<path d="M90.2378 340.416C90.1485 342.223 91.1124 344.047 92.6646 345.014C93.0523 345.255 93.5102 345.45 93.9604 345.366C94.9441 345.18 95.199 343.922 95.1921 342.934C95.1784 341.331 94.9907 339.588 93.8749 338.417C92.76 337.248 90.4294 337.174 89.7402 338.628" fill="#F2F0ED"/>
<path d="M107.01 378.862C108.727 379.788 109.118 382.515 111.038 382.892C112.366 383.151 113.635 381.95 113.881 380.635C114.128 379.321 113.612 377.989 112.99 376.801C112.469 375.808 111.808 374.803 110.777 374.334C109.441 373.727 107.689 374.294 106.947 375.545C106.208 376.797 106.553 378.558 107.693 379.471" fill="#F2F0ED"/>
<path d="M84.098 394.03C84.0797 396.246 84.8359 398.46 86.2073 400.214C86.4584 400.536 86.7438 400.853 87.1178 401.026C88.6632 401.749 90.0795 399.592 89.9048 397.914C89.6713 395.658 88.0503 393.595 85.8929 392.812" fill="#F2F0ED"/>
<path d="M62.1849 402.967C61.6332 405.045 61.6332 407.267 62.188 409.345C62.465 410.376 62.9 411.413 63.7112 412.12C64.5209 412.827 65.7778 413.117 66.7103 412.577C67.3903 412.181 67.781 411.431 67.9779 410.677C68.7311 407.773 66.6562 404.458 63.686 403.821" fill="#F2F0ED"/>
<path d="M21.4434 400.763C21.4693 402.73 21.5342 404.825 22.6629 406.445C23.7923 408.065 26.4084 408.818 27.7973 407.407C28.2545 406.942 28.5124 406.315 28.6391 405.68C29.1206 403.244 27.5272 400.576 25.1309 399.813C24.5807 399.636 23.9442 399.562 23.4489 399.861C22.9552 400.157 22.7606 400.942 23.2093 401.305" fill="#F2F0ED"/>
<path d="M3.00803 368.398C1.8076 369.242 2.11287 371.382 3.46058 371.97C4.80982 372.56 6.55126 371.503 6.75349 370.061C6.95496 368.62 5.7149 367.186 4.24967 367.023" fill="#F2F0ED"/>
<path d="M113.785 348.454C113.695 350.305 114.922 352.146 116.678 352.801C117.03 352.661 117.381 352.523 117.735 352.383C118.209 351.016 117.82 349.392 116.772 348.38C115.723 347.367 114.069 347.017 112.693 347.515" fill="#F2F0ED"/>
<path d="M50.0099 332.381C49.7329 333.493 49.8542 334.778 50.6395 335.621C51.4271 336.464 52.9801 336.61 53.7104 335.718C54.3514 334.938 54.1255 333.722 53.4784 332.945C52.8312 332.17 51.8712 331.729 50.944 331.313" fill="#F2F0ED"/>
<path d="M18.3429 346.229C18.0461 347.702 19.9447 348.966 21.3588 348.408C22.7714 347.851 23.3896 346.061 22.9698 344.617C22.1434 343.333 20.379 342.582 18.9801 343.218C17.5798 343.856 17.1357 346.058 18.3803 346.956" fill="#F2F0ED"/>
<path d="M77.5098 324.786C77.8906 326.1 78.8437 327.243 80.0785 327.861C80.8622 327.196 81.4499 326.21 81.353 325.192C81.2538 324.174 80.2883 323.231 79.2657 323.388C78.2408 323.545 77.6723 325.045 78.4782 325.69" fill="#F2F0ED"/>
<path d="M282.408 348.055C282.447 348.055 282.447 347.996 282.408 347.996C282.369 347.996 282.369 348.055 282.408 348.055Z" fill="#DA7153"/>
<path d="M271.466 358.023C271.52 358.023 271.52 357.938 271.466 357.938C271.412 357.938 271.412 358.023 271.466 358.023Z" fill="#DA7153"/>
<path d="M50.7193 511.277C50.7575 511.277 50.7575 511.217 50.7193 511.217C50.6795 511.217 50.6795 511.277 50.7193 511.277Z" fill="#DA7153"/>
<path d="M47.057 525.521C47.1122 525.521 47.1122 525.437 47.057 525.437C47.0018 525.437 47.0018 525.521 47.057 525.521Z" fill="#DA7153"/>
<path d="M23.4887 823.154C23.5447 823.154 23.5447 823.07 23.4887 823.07C23.4334 823.07 23.4334 823.154 23.4887 823.154Z" fill="#DA7153"/>
<g opacity="0.300003">
<g opacity="0.300003">
<path opacity="0.300003" d="M262.604 646.463C262.604 645.448 263.214 644.596 264.153 644.204C265.824 643.506 268.96 643.891 269.464 645.934C269.655 646.709 269.373 647.436 268.823 647.906C268.678 648.226 268.472 648.525 268.167 648.772C267.19 649.574 265.671 649.611 264.557 649.099C263.512 648.621 262.611 647.655 262.604 646.463Z" fill="white"/>
</g>
</g>
</g>
</g>
<defs>
<clipPath id="clip0_912_6653">
<rect width="390" height="844" fill="white"/>
</clipPath>
</defs>
</svg>
