<svg width="200" height="180" viewBox="0 0 200 180" fill="none" xmlns="http://www.w3.org/2000/svg">
<path d="M199.188 122.065C199.947 120.445 199.4 118.58 197.843 117.485C196.266 116.417 194.085 116.359 192.435 117.34C175.462 127.691 154.726 132.168 134.223 129.909C113.72 127.651 94.8989 118.815 81.3882 105.106C67.8782 91.3969 60.6362 73.7855 61.0546 55.664C61.4746 37.5425 69.5258 20.1937 83.6591 6.96101C85.0318 5.68029 85.2765 3.76163 84.2605 2.24839C83.2446 0.757692 81.2505 0.0104056 79.3173 0.396251C56.2659 5.26478 35.8219 16.9455 21.4277 33.4729C7.0306 50.0018 -0.443291 70.3701 0.264653 91.1509C0.972933 111.934 9.81681 131.865 25.3129 147.594C40.809 163.322 62.0095 173.887 85.349 177.515C108.691 181.142 132.75 177.611 153.48 167.511C174.212 157.414 190.352 141.366 199.186 122.068L199.188 122.065Z" fill="#A7BBE4"/>
<path d="M121.771 53.5589L106.986 51.3826C104.794 51.055 102.58 51.8494 101.275 53.4292C99.9695 55.0103 99.8025 57.1023 100.842 58.8275L107.863 70.5385L100.898 82.1897L100.9 82.1897C100.478 82.9275 100.26 83.7395 100.255 84.5624C100.288 86.0555 101.061 87.4607 102.373 88.4101C103.684 89.3609 105.403 89.7617 107.081 89.5091L121.855 87.2594L132.332 96.7177C133.872 98.1295 136.209 98.6303 138.318 97.9984C140.439 97.4088 141.988 95.8087 142.31 93.8786L144.405 80.8478L157.836 74.9966L157.836 74.998C159.833 74.1377 161.101 72.3577 161.104 70.4056C161.109 68.4494 159.827 66.6685 157.813 65.8295L144.353 60.014L142.194 47.0263C141.853 45.1007 140.304 43.5097 138.191 42.9138C136.077 42.3178 133.76 42.8175 132.201 44.206L121.771 53.5589Z" fill="#A7BBE4"/>
</svg>
