<svg width="323" height="296" viewBox="0 0 323 296" fill="none" xmlns="http://www.w3.org/2000/svg">
<path d="M321.496 223.212C315.197 249.39 296.042 271.167 272.778 282.893C265.555 286.528 258.151 289.873 250.6 292.891C247.891 293.963 245.183 295.018 242.439 295.999H79.5156C77.1211 295.018 74.7449 294 72.389 292.927C46.2679 281.147 22.5082 263.496 8.47238 239.664C4.21557 232.429 0.717645 224.539 0.0913727 216.268C-0.536742 208.015 2.06046 199.326 8.28634 194.272C15.8403 188.146 26.8535 188.491 35.4555 183.91C45.4759 178.566 50.9116 167.204 53.4148 155.861C55.9033 144.518 56.0507 132.647 58.6663 121.34C62.1458 106.27 70.0663 92.4906 81.1734 82.2016C93.9383 70.331 112.874 63.1687 129.47 70.0765C140.89 74.8393 149.106 85.2011 157.523 94.5266C165.943 103.834 176.183 113.032 188.34 113.923C197.163 114.578 205.433 110.706 213.446 107.288C223.171 103.143 233.394 99.5076 244.096 99.653C254.818 99.7984 266.163 104.379 272.297 113.578C278.322 122.612 278.339 134.047 278.93 144.736C279.538 155.425 281.562 167.313 289.908 174.169C296.611 179.675 305.933 180.62 312.802 185.892C323.872 194.345 324.407 211.087 321.496 223.212Z" fill="#B4C4E3"/>
<path d="M257.054 295.999H77.6016L82.4699 271.836C87.6182 246.268 111.73 227.726 139.833 227.726H194.825C222.928 227.726 247.04 246.268 252.188 271.836L257.054 295.999Z" fill="#FFD0BE"/>
<path d="M193.517 233.163C193.517 233.163 191.085 239.454 167.324 239.454C143.566 239.454 141.133 233.163 141.133 233.163V190.045H193.517V233.163Z" fill="#FFD0BE"/>
<path d="M193.517 212.909C193.517 212.909 184.9 222.625 167.324 222.625C149.75 222.625 141.133 212.909 141.133 212.909V190.046H193.517V212.909Z" fill="#A67D89"/>
<path d="M252.188 271.836C247.338 247.759 225.673 229.918 199.695 227.921C199.494 229.762 199.205 231.6 198.802 233.422C197.301 240.177 194.204 246.892 189.021 251.671C183.626 256.648 176.426 258.859 169.107 258.519C160.209 258.101 151.931 254.31 146.142 247.584C143.34 244.332 141.161 240.64 139.525 236.695C138.387 233.95 137.341 230.813 137.376 227.777C110.333 228.822 87.4672 247.015 82.4681 271.836L77.6016 295.999H257.054L252.188 271.836Z" fill="#9D84B7"/>
<g opacity="0.380005">
<g opacity="0.380005">
<path opacity="0.380005" d="M220.855 240.138C224.953 253.766 226.602 268.035 228.26 282.112C228.803 286.737 229.335 291.365 229.8 295.999H257.055L252.191 271.836C248.549 253.761 235.432 239.203 218.129 232.223C219.148 234.817 220.05 237.46 220.855 240.138Z" fill="#FF9CAC"/>
</g>
<g opacity="0.380005">
<path opacity="0.380005" d="M105.128 264.167C106.499 256.934 108.25 249.763 110.65 242.793C111.781 239.512 113.058 236.278 114.471 233.104C98.1912 240.384 85.9623 254.487 82.4681 271.837L77.6016 296H100.831C101.665 285.322 103.135 274.685 105.128 264.167Z" fill="#FF9CAC"/>
</g>
</g>
<path d="M150.502 13.666C149.294 8.39423 145.059 4.18591 140.145 2.07174C135.232 -0.0442352 129.715 -0.296921 124.405 0.244797C102.273 2.49712 82.2364 19.1868 75.7563 40.7647C74.6511 44.4441 73.9088 48.3325 74.5038 52.13C75.6311 59.325 81.7188 65.173 88.7036 66.8746C93.909 68.1416 98.9837 66.8437 103.939 65.2094C114.55 61.7046 124.683 57.2181 133.156 49.6904C138.124 45.2785 142.342 40.0031 145.589 34.1714C148.99 28.067 152.143 20.8138 150.502 13.666Z" fill="black"/>
<path d="M77.5831 153.545C72.374 146.721 69.4102 138.32 70.1304 130.011C70.4601 126.223 71.5469 122.371 74.0888 119.453C79.9647 112.707 87.5426 115.788 92.4626 121.649C100.873 131.665 105.474 144.47 104.152 157.271C103.684 161.802 101.435 166.73 95.8021 166.281C93.6322 166.106 91.6005 165.183 89.718 164.13C85.0247 161.503 80.8599 157.835 77.5831 153.545Z" fill="#FFD0BE"/>
<g opacity="0.410004">
<g opacity="0.410004">
<path opacity="0.410004" d="M77.3892 124.245C87.8333 128.811 95.4443 137.037 99.913 147.315C101.462 150.886 102.882 155.041 103.794 159.364C103.956 158.67 104.076 157.968 104.148 157.272C105.47 144.47 100.869 131.665 92.4603 121.649C87.5404 115.79 79.9606 112.707 74.0847 119.453C73.2098 120.457 72.5172 121.576 71.9609 122.762C73.8213 122.925 75.7591 123.532 77.3892 124.245Z" fill="#FFD0BE"/>
</g>
</g>
<path d="M93.0383 142.851C92.6164 141.293 92.0307 139.786 91.3528 138.319C90.0782 135.557 88.3228 132.889 86.0295 130.846C83.9113 128.957 80.8259 126.919 77.8383 127.892C75.4511 128.668 73.8227 131.805 76.0202 133.712C76.4402 134.076 77.2083 133.592 76.8454 133.083C76.1252 132.074 76.4494 130.722 77.5399 130.12C78.5843 129.542 79.8313 129.679 80.9033 130.093C82.3198 130.644 83.5852 131.627 84.6978 132.736C83.1874 134.905 82.34 137.468 82.3106 140.12C82.2737 143.189 83.2758 146.517 85.4438 148.786C85.8914 149.253 86.5895 148.659 86.315 148.122C85.6409 146.814 85.033 145.596 84.6609 144.172C84.311 142.827 84.066 141.518 84.0899 140.12C84.1286 137.917 84.7512 135.799 85.7256 133.838C85.9485 134.1 86.1843 134.359 86.3887 134.623C87.8457 136.503 88.9435 138.651 89.8443 140.838C90.3287 142.022 90.8205 143.216 91.2534 144.419C91.7102 145.69 92.0436 147.037 92.7233 148.212C93.1027 148.868 94.2355 148.602 94.1987 147.817C94.1158 146.125 93.4785 144.479 93.0383 142.851Z" fill="#A67D89"/>
<path d="M255.336 153.545C260.545 146.721 263.509 138.32 262.789 130.011C262.459 126.223 261.372 122.371 258.83 119.453C252.954 112.707 245.377 115.788 240.457 121.649C232.046 131.665 227.445 144.47 228.767 157.271C229.237 161.802 231.484 166.73 237.117 166.281C239.289 166.106 241.321 165.183 243.201 164.13C247.895 161.503 252.059 157.835 255.336 153.545Z" fill="#FFD0BE"/>
<g opacity="0.410004">
<g opacity="0.410004">
<path opacity="0.410004" d="M255.34 153.545C260.549 146.721 263.513 138.32 262.793 130.011C262.463 126.223 261.376 122.371 258.834 119.453C252.958 112.707 245.38 115.788 240.461 121.649C232.05 131.665 227.449 144.47 228.771 157.271C229.241 161.802 231.488 166.73 237.121 166.281C239.293 166.106 241.324 165.183 243.205 164.13C247.898 161.503 252.063 157.835 255.34 153.545Z" fill="#FFD0BE"/>
</g>
</g>
<path d="M239.88 142.851C240.302 141.293 240.888 139.786 241.565 138.319C242.842 135.557 244.596 132.889 246.891 130.846C249.007 128.957 252.092 126.919 255.08 127.892C257.467 128.668 259.096 131.805 256.898 133.712C256.478 134.076 255.71 133.592 256.073 133.083C256.793 132.074 256.469 130.722 255.378 130.12C254.334 129.542 253.087 129.679 252.015 130.093C250.599 130.644 249.333 131.627 248.221 132.736C249.731 134.905 250.58 137.468 250.608 140.12C250.645 143.189 249.643 146.517 247.475 148.786C247.027 149.253 246.329 148.659 246.605 148.122C247.277 146.814 247.885 145.596 248.257 144.172C248.607 142.827 248.852 141.518 248.828 140.12C248.792 137.917 248.167 135.799 247.193 133.838C246.97 134.1 246.736 134.359 246.53 134.623C245.073 136.503 243.975 138.651 243.076 140.838C242.59 142.022 242.098 143.216 241.665 144.419C241.208 145.69 240.875 147.037 240.195 148.212C239.817 148.868 238.683 148.602 238.72 147.817C238.803 146.125 239.44 144.479 239.88 142.851Z" fill="#A67D89"/>
<path d="M83.7325 110.699C76.7219 101.552 83.4986 26.9069 157.248 24.2964C230.997 21.6824 259.7 83.2676 242.682 110.148C225.662 137.027 97.5418 128.721 83.7325 110.699Z" fill="#9D84B7"/>
<path d="M241.083 129.245C241.083 171.238 207.675 214.75 166.462 214.75C125.252 214.75 91.8438 171.238 91.8438 129.245C91.8438 87.2547 125.252 53.2154 166.462 53.2154C207.675 53.2154 241.083 87.2547 241.083 129.245Z" fill="#FFD0BE"/>
<path d="M183.559 169.827C180.36 173.988 175.038 176.733 169.798 177.153C167.486 177.339 165.123 177.048 162.912 176.366C160.595 175.65 158.582 174.454 156.407 173.448C155.705 173.125 155.117 174.061 155.559 174.608C158.809 178.609 165.243 179.818 170.14 179.393C173.01 179.142 175.839 178.207 178.321 176.771C180.99 175.228 182.996 173.161 184.74 170.665C185.27 169.904 184.127 169.091 183.559 169.827Z" fill="#A67D89"/>
<path d="M176.583 150.96C174.255 148.135 170.039 147.589 166.839 149.127C166.71 144.688 166.784 140.242 167.193 135.819C167.438 133.196 167.869 130.603 168.189 127.991C168.51 125.403 169.182 122.856 169.423 120.262C169.525 119.189 168.022 119.193 167.675 120.027C166.683 122.434 166.224 125.121 165.666 127.655C165.1 130.223 164.826 132.901 164.564 135.515C164.028 140.862 163.94 146.228 164.244 151.592C164.303 152.659 165.673 153.381 166.491 152.512C168.6 150.271 172.533 149.974 174.736 152.294C177.005 154.685 176.268 158.889 173.629 160.689C172.612 161.38 173.551 163.023 174.609 162.343C178.346 159.938 179.464 154.455 176.583 150.96Z" fill="#A67D89"/>
<path d="M211.302 141.086C210.309 141.335 209.482 142.235 208.64 142.797C207.708 143.42 206.719 143.984 205.673 144.4C203.501 145.269 201.134 145.596 198.802 145.387C196.452 145.178 194.185 144.349 192.195 143.113C191.252 142.528 190.396 141.82 189.666 140.991C188.905 140.128 188.565 139.068 187.931 138.137C187.658 137.737 186.966 137.757 186.841 138.277C186.27 140.635 188.519 143.078 190.222 144.42C192.438 146.167 195.096 147.301 197.9 147.732C200.622 148.152 203.417 147.927 206.014 146.992C207.279 146.536 208.522 145.961 209.642 145.214C210.687 144.518 212.171 143.515 212.481 142.249C212.652 141.544 212.024 140.908 211.302 141.086Z" fill="black"/>
<path d="M121.687 141.086C122.68 141.335 123.507 142.235 124.349 142.797C125.281 143.42 126.27 143.984 127.316 144.4C129.488 145.269 131.855 145.596 134.187 145.387C136.539 145.178 138.805 144.349 140.796 143.113C141.737 142.528 142.594 141.82 143.325 140.991C144.084 140.128 144.425 139.068 145.058 138.137C145.331 137.737 146.024 137.757 146.151 138.277C146.72 140.635 144.471 143.078 142.767 144.42C140.551 146.167 137.893 147.301 135.091 147.732C132.367 148.152 129.573 147.927 126.976 146.992C125.71 146.536 124.467 145.961 123.347 145.214C122.304 144.518 120.818 143.515 120.508 142.249C120.339 141.544 120.965 140.908 121.687 141.086Z" fill="black"/>
<g opacity="0.149994">
<g opacity="0.149994">
<path opacity="0.149994" d="M147.171 209.475C147.546 194.567 144.087 179.117 133.181 167.924C128.058 162.664 121.331 158.602 114.341 156.032C110.744 154.707 106.924 153.747 103.044 153.918C100.943 154.012 98.2441 154.649 96.1719 155.914C104.345 181.233 123.385 203.385 147.086 211.473C147.119 210.804 147.152 210.137 147.171 209.475Z" fill="#FFC0CA"/>
</g>
<g opacity="0.149994">
<path opacity="0.149994" d="M231.805 156.983C223.558 156.132 215.833 158.161 208.901 161.851C206.162 163.809 203.593 165.992 201.209 168.376C191.998 177.576 185.919 189.234 185.333 202.102C185.188 205.254 185.333 208.401 185.682 211.53C208.898 203.675 227.658 182.311 236.15 157.677C234.719 157.383 233.273 157.134 231.805 156.983Z" fill="#FFC0CA"/>
</g>
</g>
<path d="M217.713 138.521C216.92 147.145 207.875 153.938 197.805 153.406C181.721 152.553 173.368 134.391 181.226 123.58C182.788 121.435 184.987 119.579 187.894 118.205C192.226 116.156 197.562 115.745 202.248 117.098C207.995 118.754 212.468 122.878 215.1 127.579C216.999 130.973 218.058 134.767 217.713 138.521ZM193.845 174.044C192.672 178.263 189.098 183.096 184.849 185.64C175.271 191.37 161.34 190.488 152.977 183.44C151.323 182.044 149.884 180.415 149.089 178.541C147.954 175.869 148.33 172.72 150.665 170.608C154.033 167.559 159.452 167.254 164.023 166.969C169.916 166.601 175.812 166.234 181.705 165.867C183.858 165.734 186.05 165.601 188.148 166.029C192.488 166.91 194.873 170.344 193.845 174.044ZM133.216 153.547C123.264 152.115 116.226 143.74 117.707 135.183C118.352 131.457 120.372 127.966 123.109 125.029C126.902 120.959 132.336 117.806 138.368 117.307C143.29 116.898 148.378 118.335 152.067 121.171C154.539 123.073 156.199 125.307 157.158 127.701C161.994 139.757 149.111 155.832 133.216 153.547ZM161.572 159.083C161.832 158.043 162.834 157.267 163.88 156.705C167.247 154.9 171.517 154.625 175.372 155.427C176.781 155.72 178.201 156.17 179.242 157.041C179.643 157.378 179.992 157.79 180.08 158.265C180.17 158.741 179.944 159.283 179.445 159.499C179.227 159.595 178.979 159.621 178.735 159.619C177.859 159.615 177.039 159.27 176.182 159.108C175.503 158.981 174.801 158.972 174.106 158.963C172.112 158.937 170.089 158.915 168.159 159.352C166.917 159.632 160.888 161.793 161.572 159.083ZM229.684 104.038C229.27 103.722 228.804 103.46 228.299 103.282C226.577 102.677 224.632 102.807 222.794 103.056C221.414 103.242 215.743 104.929 214.391 105.232C216.159 104.211 222.779 102.258 223.875 100.686C224.398 99.9334 224.558 99.0353 224.595 98.161C224.63 97.2848 224.542 96.4085 224.352 95.5469C223.503 94.5634 222.595 93.6381 221.626 92.7747C192.165 66.5158 133.397 64.7052 108.797 95.665C108.801 95.8868 108.792 96.1104 108.808 96.3304C108.877 97.2048 109.07 98.0992 109.617 98.8354C110.77 100.379 117.456 102.153 119.262 103.127C117.9 102.86 112.17 101.326 110.785 101.177C108.937 100.979 106.992 100.899 105.29 101.549C105.078 101.631 104.87 101.728 104.671 101.835C93.0152 123.356 99.6574 159.757 118.366 184.669C119.545 184.893 120.656 184.58 121.673 184.165C122.489 183.836 125.565 181.659 126.326 181.228C125.515 182.342 121.921 184.867 121.702 186.387C121.597 187.11 121.765 187.921 122.006 188.695C122.095 188.981 122.2 189.263 122.308 189.543C134.294 203.264 150.338 212.36 169.157 211.404C189.08 210.39 205.51 197.861 216.857 181.053C217.157 180.15 217.375 179.219 217.481 178.283C217.57 177.485 217.581 176.661 217.34 175.963C216.831 174.496 212.805 172.515 211.793 171.529C212.628 171.848 216.076 173.556 216.944 173.769C218.1 174.051 219.34 174.231 220.53 173.731C221.033 173.522 221.512 173.153 221.906 172.695C222.186 172.178 222.458 171.659 222.729 171.135C222.784 170.901 222.825 170.662 222.823 170.417L222.845 170.91C234.343 148.483 237.623 121.673 229.684 104.038Z" fill="#F2F0ED"/>
<g opacity="0.240005">
<g opacity="0.240005">
<path opacity="0.240005" d="M229.686 104.038C229.272 103.722 228.804 103.46 228.301 103.282C226.579 102.677 224.634 102.807 222.796 103.056C221.416 103.242 215.744 104.929 214.392 105.232C216.161 104.211 222.781 102.258 223.877 100.684C224.4 99.9334 224.56 99.0353 224.595 98.161C224.632 97.2848 224.544 96.4086 224.354 95.5469C223.505 94.5634 222.597 93.6363 221.628 92.7747C212.755 84.8634 201.215 79.1917 188.758 75.945C194.212 83.38 198.078 92.1093 200.635 100.657C202.28 106.16 203.49 111.926 204.192 117.777C209.003 119.724 212.773 123.422 215.102 127.579C217.001 130.971 218.06 134.765 217.715 138.521C217.012 146.165 209.826 152.358 201.189 153.3C199.316 158.979 196.676 164.369 193.184 169.29C194.037 170.666 194.326 172.32 193.847 174.044C192.674 178.263 189.1 183.096 184.851 185.64C179.988 188.548 174.002 189.744 168.19 189.303C159.26 193.286 149.385 195.223 139.8 193.856C133.104 192.904 127.202 190.273 121.711 186.703C121.682 187.345 121.802 188.028 122.008 188.694C122.096 188.981 122.201 189.263 122.31 189.543C134.298 203.264 150.339 212.36 169.159 211.404C189.082 210.39 205.512 197.859 216.859 181.053C217.159 180.15 217.376 179.217 217.483 178.283C217.572 177.483 217.583 176.661 217.341 175.961C216.833 174.496 212.806 172.515 211.795 171.529C212.63 171.848 216.078 173.556 216.945 173.767C218.102 174.051 219.342 174.229 220.532 173.731C221.035 173.522 221.514 173.153 221.908 172.695C222.188 172.177 222.46 171.657 222.731 171.135C222.786 170.899 222.827 170.661 222.825 170.417L222.847 170.91C234.345 148.483 237.625 121.673 229.686 104.038Z" fill="#AFBEF0"/>
</g>
</g>
<path d="M246.461 99.8437C244.031 86.9424 237.389 74.1793 230.327 64.601C222.618 54.1447 212.655 45.7372 201.198 40.4072C189.58 35.0009 176.605 32.6214 163.791 34.1447C157.519 34.8937 150.899 36.6934 145.069 39.9146C144.677 39.771 144.284 39.6365 143.899 39.5128C140.261 38.3549 136.325 38.0749 132.512 38.5603C124.26 39.6146 116.824 44.2593 110.744 50.3454C104.359 56.7352 99.2332 64.6756 95.2563 72.9486C91.1653 81.458 88.2881 90.58 86.7593 99.9346C85.912 105.108 85.4718 110.329 85.4847 115.552C85.492 118.059 85.527 120.676 85.8438 123.216C85.9488 123.572 86.0464 123.93 86.1643 124.281C86.8919 126.47 88.336 130.882 91.0161 131.089C95.7095 131.451 97.2273 118.526 98.0064 115.259C102.652 95.7972 115.47 81.3125 133.284 75.0464C138.664 73.154 144.281 71.0162 148.136 66.3498C148.812 65.53 152.341 60.9744 151.785 59.8928C151.919 60.1546 152.074 60.4036 152.21 60.6636C152.485 60.5254 152.864 60.6036 153.001 61.0126C154.616 65.8517 158.626 69.2438 162.509 71.9888C166.27 74.6483 170.315 76.8661 174.509 78.6221C183.288 82.2978 192.621 83.8794 201.723 86.3389C210.001 88.5767 217.921 92.4214 224.626 98.1095C228.306 101.231 231.2 105.241 233.419 109.646C235.665 114.099 236.455 119.138 238.441 123.583C238.754 124.281 239.369 124.883 240.095 124.923C240.513 124.946 240.922 124.786 241.299 124.592C243.2 123.619 244.585 121.709 245.571 119.764C246.884 117.157 247.325 114.167 247.415 111.243C247.531 107.484 247.181 103.659 246.461 99.8437Z" fill="black"/>
<path d="M211.856 9.36803C213.538 6.95029 215.588 4.67616 218.263 3.39457C220.934 2.11299 224.325 1.99301 226.749 3.68724C228.635 5.00337 229.687 7.1757 230.556 9.28623C231.595 11.7985 232.498 14.3853 232.877 17.0721C233.411 20.846 232.894 24.6889 232.138 28.4246C231.319 32.4602 230.201 36.4959 228.086 40.0425C225.019 45.1797 214.662 52.8474 209.327 46.0905C204.687 40.217 204.894 29.2681 206.306 22.4329C207.27 17.7756 209.132 13.291 211.856 9.36803Z" fill="#CABBDA"/>
<path d="M206.325 44.0667C205.755 41.5744 206.393 38.9331 207.562 36.6517C209.754 32.3706 214.066 29.0312 218.911 28.644C223.755 28.2568 228.861 31.2436 230.235 35.8445C231.784 41.0309 228.596 47.0262 224.663 50.3874C220.616 53.8431 216.151 54.9247 211.795 51.6035C209.366 49.7511 207.012 47.088 206.325 44.0667Z" fill="#9D84B7"/>
<path d="M214.738 51.159C213.871 50.121 213.097 48.9503 212.854 47.6269C212.486 45.64 213.37 43.6186 214.569 41.9807C217.063 38.5831 220.88 36.358 224.79 34.7129C230.493 32.3151 236.722 30.939 242.899 31.4353C249.077 31.9316 255.192 34.4093 259.456 38.8485C260.803 40.2483 261.981 41.8861 262.392 43.7749C263.184 47.4197 260.937 51.0663 258.202 53.6367C253.606 57.956 247.389 60.4719 241.058 60.9172C232.213 61.5408 220.548 58.1159 214.738 51.159Z" fill="#CABBDA"/>
<path d="M304.724 206.335C304.724 221.35 292.39 233.523 277.174 233.523C261.959 233.523 249.625 221.35 249.625 206.335C249.625 191.318 261.959 179.145 277.174 179.145C292.39 179.145 304.724 191.318 304.724 206.335Z" fill="black"/>
<path d="M300.536 206.326C300.536 206.526 300.536 206.728 300.516 206.93C300.21 219.388 289.867 229.391 277.184 229.391C264.275 229.391 253.812 219.066 253.812 206.326C253.812 193.609 264.275 183.28 277.184 183.28C290.07 183.28 300.536 193.609 300.536 206.326Z" fill="white"/>
<path d="M300.532 206.326C300.532 206.526 300.532 206.728 300.512 206.929H277.18V183.279C290.066 183.279 300.532 193.608 300.532 206.326Z" fill="#9D84B7"/>
<path d="M277.176 187.07V190.519" stroke="black" stroke-width="1.33333" stroke-miterlimit="10" stroke-linecap="round" stroke-linejoin="round"/>
<path d="M277.176 222.802V226.251" stroke="black" stroke-width="1.33333" stroke-miterlimit="10" stroke-linecap="round" stroke-linejoin="round"/>
<path d="M297.024 206.66H293.531" stroke="black" stroke-width="1.33333" stroke-miterlimit="10" stroke-linecap="round" stroke-linejoin="round"/>
<path d="M260.822 206.66H257.328" stroke="black" stroke-width="1.33333" stroke-miterlimit="10" stroke-linecap="round" stroke-linejoin="round"/>
<path d="M291.212 192.808L288.742 195.247" stroke="black" stroke-width="1.33333" stroke-miterlimit="10" stroke-linecap="round" stroke-linejoin="round"/>
<path d="M265.613 218.075L263.141 220.512" stroke="black" stroke-width="1.33333" stroke-miterlimit="10" stroke-linecap="round" stroke-linejoin="round"/>
<path d="M291.212 220.512L288.742 218.074" stroke="black" stroke-width="1.33333" stroke-miterlimit="10" stroke-linecap="round" stroke-linejoin="round"/>
<path d="M265.613 195.247L263.141 192.807" stroke="black" stroke-width="1.33333" stroke-miterlimit="10" stroke-linecap="round" stroke-linejoin="round"/>
</svg>
