<svg width="323" height="296" viewBox="0 0 323 296" fill="none" xmlns="http://www.w3.org/2000/svg">
<path d="M321.497 223.212C315.197 249.39 296.041 271.167 272.776 282.893C265.556 286.528 258.151 289.873 250.599 292.891C247.891 293.963 245.184 295.018 242.439 295.999H79.5167C77.1222 295.018 74.746 294 72.3883 292.927C46.2691 281.147 22.5077 263.496 8.47372 239.664C4.21692 232.429 0.719 224.539 0.0908878 216.268C-0.535383 208.015 2.06182 199.326 8.28769 194.272C15.8416 188.146 26.8548 188.491 35.4568 183.91C45.4771 178.566 50.9128 167.204 53.416 155.861C55.9045 144.518 56.0519 132.647 58.6675 121.34C62.1469 106.27 70.0674 92.4906 81.1745 82.2016C93.9394 70.331 112.875 63.1687 129.471 70.0765C140.891 74.8393 149.106 85.201 157.524 94.5266C165.942 103.834 176.183 113.032 188.34 113.923C197.163 114.578 205.434 110.706 213.447 107.288C223.172 103.143 233.395 99.5075 244.097 99.653C254.817 99.7984 266.164 104.379 272.297 113.578C278.323 122.612 278.339 134.047 278.93 144.736C279.536 155.425 281.563 167.313 289.909 174.169C296.612 179.675 305.932 180.62 312.802 185.892C323.873 194.345 324.407 211.087 321.497 223.212Z" fill="#B4C4E3"/>
<path d="M252.019 295.999H72.5664L77.4329 271.836C82.5831 246.268 106.694 227.726 134.796 227.726H189.788C217.892 227.726 242.004 246.268 247.152 271.836L252.019 295.999Z" fill="#FFD0BE"/>
<path d="M188.485 233.163C188.485 233.163 186.052 239.455 162.293 239.455C138.533 239.455 136.102 233.163 136.102 233.163V190.046H188.485V233.163Z" fill="#FFD0BE"/>
<path d="M188.485 212.909C188.485 212.909 179.867 222.625 162.293 222.625C144.718 222.625 136.102 212.909 136.102 212.909V190.046H188.485V212.909Z" fill="#A67D89"/>
<path d="M247.152 271.836C242.302 247.759 220.635 229.918 194.658 227.921C194.459 229.762 194.168 231.6 193.764 233.422C192.263 240.177 189.169 246.892 183.985 251.671C178.588 256.648 171.39 258.859 164.072 258.519C155.171 258.102 146.894 254.31 141.104 247.584C138.305 244.332 136.124 240.64 134.488 236.695C133.351 233.95 132.305 230.813 132.338 227.777C105.296 228.822 82.4302 247.015 77.4311 271.836L72.5664 295.999H252.019L247.152 271.836Z" fill="#9D84B7"/>
<g opacity="0.380005">
<g opacity="0.380005">
<path opacity="0.380005" d="M215.818 240.138C219.916 253.767 221.567 268.035 223.225 282.112C223.766 286.737 224.298 291.367 224.763 295.999H252.02L247.155 271.836C243.514 253.761 230.395 239.204 213.094 232.223C214.111 234.817 215.013 237.461 215.818 240.138Z" fill="#9D84B7"/>
</g>
<g opacity="0.380005">
<path opacity="0.380005" d="M100.097 264.168C101.465 256.935 103.217 249.763 105.619 242.794C106.748 239.512 108.025 236.278 109.439 233.104C93.1599 240.385 80.931 254.488 77.435 271.837L72.5703 296H95.7976C96.6338 285.322 98.1037 274.688 100.097 264.168Z" fill="#9D84B7"/>
</g>
</g>
<path d="M145.468 13.666C144.258 8.39422 140.023 4.1859 135.111 2.07173C130.197 -0.0442475 124.682 -0.296931 119.369 0.244789C97.24 2.49711 77.203 19.1868 70.723 40.7647C69.616 44.4441 68.8736 48.3325 69.4686 52.1318C70.5977 59.325 76.6854 65.1749 83.6684 66.8746C88.8738 68.1416 93.9502 66.8437 98.9033 65.2094C109.517 61.7046 119.648 57.2181 128.121 49.6904C133.088 45.2785 137.307 40.0031 140.556 34.1714C143.954 28.067 147.108 20.8138 145.468 13.666Z" fill="black"/>
<path d="M72.5536 153.545C67.3445 146.723 64.3789 138.321 65.0991 130.011C65.4288 126.223 66.5156 122.371 69.0575 119.453C74.9334 112.707 82.5131 115.789 87.433 121.649C95.8435 131.666 100.443 144.471 99.1203 157.272C98.6525 161.802 96.4053 166.73 90.7725 166.281C88.6008 166.107 86.5691 165.183 84.6866 164.131C79.9933 161.504 75.8286 157.836 72.5536 153.545Z" fill="#FFD0BE"/>
<g opacity="0.410004">
<g opacity="0.410004">
<path opacity="0.410004" d="M87.4319 121.65C82.512 115.789 74.9323 112.708 69.0546 119.454C68.2551 120.373 67.6105 121.393 67.0781 122.468C71.3441 123.662 75.2454 128.157 77.5534 131.202C81.335 136.194 83.8272 141.875 86.3838 147.532C88.9571 153.227 91.9411 159.577 93.4846 166.029C97.1502 164.965 98.7361 160.99 99.1192 157.272C100.44 144.471 95.8405 131.666 87.4319 121.65Z" fill="#FFD0BE"/>
</g>
</g>
<path d="M88.0064 142.851C87.5846 141.295 86.9988 139.786 86.321 138.319C85.0463 135.558 83.2909 132.889 80.9977 130.846C78.8794 128.957 75.796 126.919 72.8064 127.892C70.4192 128.668 68.7909 131.806 70.9903 133.713C71.4084 134.076 72.1765 133.594 71.8136 133.084C71.0953 132.075 71.4194 130.722 72.5099 130.12C73.5524 129.542 74.7995 129.679 75.8733 130.093C77.288 130.644 78.5534 131.627 79.6678 132.736C78.1574 134.905 77.3082 137.468 77.2788 140.121C77.2438 143.189 78.2458 146.518 80.4119 148.786C80.8595 149.253 81.5577 148.659 81.2832 148.123C80.609 146.814 80.0012 145.596 79.6291 144.172C79.2791 142.827 79.0341 141.518 79.0599 140.121C79.0968 137.917 79.7194 135.799 80.6938 133.838C80.9185 134.1 81.1524 134.36 81.3587 134.623C82.8139 136.503 83.9117 138.652 84.8124 140.839C85.2987 142.022 85.7887 143.216 86.2215 144.42C86.6802 145.69 87.0136 147.037 87.6933 148.212C88.0709 148.868 89.2055 148.603 89.1668 147.817C89.0839 146.125 88.4466 144.48 88.0064 142.851Z" fill="#A67D89"/>
<path d="M250.299 153.545C255.508 146.723 258.474 138.321 257.754 130.011C257.424 126.223 256.337 122.371 253.795 119.453C247.919 112.707 240.34 115.789 235.42 121.649C227.009 131.666 222.41 144.471 223.732 157.272C224.2 161.802 226.447 166.73 232.08 166.281C234.252 166.107 236.284 165.183 238.166 164.131C242.859 161.504 247.024 157.836 250.299 153.545Z" fill="#FFD0BE"/>
<g opacity="0.410004">
<g opacity="0.410004">
<path opacity="0.410004" d="M234.722 147.176C237.632 138.114 242.52 129.907 248.901 122.804C249.982 121.599 251.434 120.134 253.095 118.734C247.326 112.979 240.146 116.018 235.42 121.65C227.009 131.666 222.41 144.471 223.732 157.273C224.18 161.615 226.274 166.309 231.41 166.296C231.575 159.805 232.73 153.371 234.722 147.176Z" fill="#FFD0BE"/>
</g>
</g>
<path d="M234.849 142.851C235.271 141.295 235.856 139.786 236.534 138.319C237.809 135.558 239.564 132.889 241.858 130.846C243.976 128.957 247.059 126.919 250.049 127.892C252.436 128.668 254.063 131.806 251.865 133.713C251.447 134.076 250.679 133.594 251.042 133.084C251.76 132.075 251.436 130.722 250.345 130.12C249.303 129.542 248.056 129.679 246.982 130.093C245.567 130.644 244.3 131.627 243.188 132.736C244.698 134.905 245.547 137.468 245.577 140.121C245.612 143.189 244.61 146.518 242.443 148.786C241.996 149.253 241.298 148.659 241.572 148.123C242.246 146.814 242.854 145.596 243.226 144.172C243.576 142.827 243.821 141.518 243.795 140.121C243.759 137.917 243.136 135.799 242.162 133.838C241.937 134.1 241.703 134.36 241.497 134.623C240.041 136.503 238.944 138.652 238.043 140.839C237.557 142.022 237.067 143.216 236.634 144.42C236.175 145.69 235.842 147.037 235.162 148.212C234.784 148.868 233.65 148.603 233.688 147.817C233.771 146.125 234.409 144.48 234.849 142.851Z" fill="#A67D89"/>
<path d="M78.6982 110.699C71.6858 101.552 78.4624 26.9069 152.211 24.2964C225.96 21.6823 254.664 83.2676 237.646 110.148C220.628 137.027 92.5056 128.721 78.6982 110.699Z" fill="#9D84B7"/>
<path d="M236.045 129.245C236.045 171.238 202.635 214.75 161.423 214.75C120.213 214.75 86.8047 171.238 86.8047 129.245C86.8047 87.2546 120.213 53.2154 161.423 53.2154C202.635 53.2154 236.045 87.2546 236.045 129.245Z" fill="#FFD0BE"/>
<g opacity="0.149994">
<g opacity="0.149994">
<path opacity="0.149994" d="M142.139 209.475C142.517 194.567 139.056 179.117 128.151 167.925C123.029 162.664 116.302 158.603 109.312 156.032C105.714 154.707 101.892 153.747 98.0149 153.918C95.9113 154.013 93.2128 154.649 91.1406 155.916C99.3153 181.233 118.354 203.386 142.055 211.473C142.088 210.804 142.123 210.137 142.139 209.475Z" fill="#CABBDA"/>
</g>
<g opacity="0.149994">
<path opacity="0.149994" d="M226.777 156.983C218.531 156.133 210.804 158.161 203.872 161.852C201.133 163.809 198.564 165.993 196.18 168.376C186.968 177.576 180.89 189.234 180.306 202.102C180.161 205.255 180.306 208.401 180.652 211.53C203.869 203.675 222.629 182.311 231.121 157.678C229.691 157.383 228.243 157.134 226.777 156.983Z" fill="#CABBDA"/>
</g>
</g>
<path d="M134.593 142.208C134.593 147.502 132.139 151.794 129.111 151.794C126.086 151.794 123.633 147.502 123.633 142.208C123.633 136.913 126.086 132.621 129.111 132.621C132.139 132.621 134.593 136.913 134.593 142.208Z" fill="black"/>
<path d="M201.208 142.208C201.208 147.502 198.754 151.794 195.726 151.794C192.7 151.794 190.246 147.502 190.246 142.208C190.246 136.913 192.7 132.621 195.726 132.621C198.754 132.621 201.208 136.913 201.208 142.208Z" fill="black"/>
<path d="M171.548 150.96C169.22 148.136 165.003 147.59 161.804 149.128C161.677 144.689 161.749 140.242 162.159 135.82C162.403 133.196 162.834 130.604 163.156 127.992C163.475 125.403 164.147 122.856 164.39 120.262C164.49 119.19 162.987 119.193 162.642 120.028C161.649 122.435 161.189 125.122 160.631 127.656C160.067 130.224 159.791 132.902 159.529 135.516C158.993 140.862 158.905 146.229 159.209 151.593C159.269 152.66 160.638 153.382 161.456 152.513C163.565 150.272 167.498 149.975 169.701 152.295C171.97 154.685 171.233 158.89 168.593 160.69C167.577 161.38 168.516 163.024 169.575 162.344C173.311 159.939 174.429 154.456 171.548 150.96Z" fill="#A67D89"/>
<path d="M204.054 117.053C202.422 115.451 200.451 114.26 198.32 113.43C194.02 111.755 187.924 111.623 184.098 114.535C183.271 115.164 183.702 116.54 184.84 116.273C186.931 115.786 188.9 115.207 191.071 115.166C193.16 115.124 195.256 115.466 197.189 116.262C198.846 116.942 200.377 117.962 201.713 119.136C202.455 119.787 203.055 120.525 203.72 121.246C204.356 121.934 204.877 122.79 205.595 123.384C206.22 123.904 207.412 123.617 207.351 122.666C207.218 120.545 205.518 118.492 204.054 117.053Z" fill="black"/>
<path d="M120.784 117.053C122.416 115.451 124.387 114.26 126.518 113.43C130.817 111.755 136.914 111.623 140.742 114.535C141.567 115.164 141.136 116.54 139.999 116.273C137.907 115.786 135.939 115.207 133.768 115.166C131.677 115.124 129.581 115.466 127.649 116.262C125.991 116.942 124.46 117.962 123.125 119.136C122.383 119.787 121.782 120.525 121.117 121.246C120.484 121.934 119.96 122.79 119.242 123.384C118.618 123.904 117.426 123.617 117.487 122.666C117.619 120.545 119.319 118.492 120.784 117.053Z" fill="black"/>
<path d="M143.969 163.779C149.482 160.439 153.566 165.542 164.802 166.028C172.912 166.382 181.037 161.683 184.854 164.211C188.672 166.744 180.07 181.09 163.601 181.67C147.132 182.248 138.456 167.12 143.969 163.779Z" fill="white"/>
<path d="M241.427 99.8437C238.997 86.9424 232.355 74.1793 225.293 64.601C217.584 54.1447 207.619 45.7372 196.162 40.4072C184.545 35.0009 171.572 32.6214 158.757 34.1447C152.485 34.8937 145.865 36.6934 140.035 39.9146C139.643 39.771 139.251 39.6365 138.864 39.5128C135.226 38.3567 131.29 38.0749 127.479 38.5603C119.225 39.6146 111.789 44.2593 105.708 50.3454C99.326 56.7352 94.198 64.6756 90.2212 72.9486C86.132 81.458 83.253 90.58 81.7241 99.9364C80.8787 105.108 80.4366 110.329 80.4495 115.552C80.4569 118.059 80.4919 120.676 80.8105 123.216C80.9155 123.572 81.0113 123.93 81.1292 124.281C81.8568 126.47 83.3009 130.882 85.9828 131.089C90.6761 131.451 92.1921 118.526 92.9731 115.259C97.6167 95.7972 110.435 81.3125 128.249 75.0464C133.631 73.154 139.245 71.0162 143.1 66.3498C143.776 65.5299 147.308 60.9744 146.749 59.8928C146.884 60.1546 147.039 60.4036 147.177 60.6636C147.451 60.5254 147.831 60.6036 147.967 61.0144C149.581 65.8535 153.592 69.2438 157.475 71.9906C161.235 74.6483 165.282 76.8679 169.476 78.6239C178.255 82.2978 187.588 83.8794 196.687 86.3389C204.965 88.5767 212.885 92.4214 219.592 98.1095C223.27 101.231 226.164 105.241 228.384 109.646C230.629 114.099 231.421 119.138 233.407 123.583C233.718 124.281 234.333 124.883 235.061 124.923C235.479 124.948 235.886 124.786 236.264 124.592C238.167 123.619 239.552 121.709 240.535 119.764C241.849 117.157 242.291 114.167 242.381 111.243C242.495 107.484 242.145 103.659 241.427 99.8437Z" fill="black"/>
<path d="M206.822 9.36828C208.502 6.95053 210.554 4.67822 213.227 3.39481C215.897 2.11323 219.29 1.99325 221.714 3.68749C223.599 5.00361 224.65 7.17595 225.52 9.28647C226.559 11.7987 227.463 14.3856 227.843 17.0723C228.375 20.8462 227.859 24.6891 227.102 28.4248C226.284 32.4605 225.166 36.4979 223.05 40.0427C219.985 45.18 209.626 52.8477 204.291 46.0907C199.653 40.2191 199.858 29.2683 201.272 22.4332C202.236 17.7758 204.096 13.2912 206.822 9.36828Z" fill="#CABBDA"/>
<path d="M201.289 44.0672C200.72 41.5749 201.358 38.9336 202.527 36.6522C204.719 32.3729 209.031 29.0317 213.876 28.6445C218.72 28.2573 223.828 31.244 225.2 35.845C226.749 41.0332 223.562 47.0266 219.628 50.3879C215.583 53.8436 211.116 54.9252 206.76 51.604C204.33 49.7516 201.978 47.0885 201.289 44.0672Z" fill="#9D84B7"/>
<path d="M209.703 51.1599C208.836 50.1219 208.062 48.9512 207.819 47.6278C207.451 45.6409 208.333 43.6194 209.534 41.9815C212.028 38.584 215.843 36.3589 219.755 34.7138C225.456 32.316 231.687 30.9399 237.863 31.4362C244.041 31.9324 250.155 34.4102 254.419 38.8494C255.766 40.2491 256.944 41.887 257.355 43.7757C258.147 47.4205 255.9 51.0672 253.165 53.6376C248.569 57.9568 242.352 60.4727 236.023 60.9181C227.176 61.5434 215.511 58.1168 209.703 51.1599Z" fill="#CABBDA"/>
<path d="M229.93 202.254C229.93 202.254 242.822 201.184 246.198 194.845C249.574 188.506 250.035 172.614 250.035 172.614C250.035 172.614 251.488 189.74 254.958 194.432C258.427 199.124 270.142 201.349 270.142 201.349C270.142 201.349 259.713 202.129 256.209 206.803C252.704 211.475 251.871 227.777 251.871 227.777C251.871 227.777 249.867 211.351 245.614 206.803C241.359 202.254 229.93 202.254 229.93 202.254Z" fill="white"/>
<path d="M270.141 228.893C270.141 228.893 277.442 228.286 279.354 224.696C281.266 221.106 281.528 212.107 281.528 212.107C281.528 212.107 282.349 221.807 284.315 224.461C286.28 227.119 292.913 228.381 292.913 228.381C292.913 228.381 287.008 228.823 285.024 231.469C283.038 234.116 282.567 243.347 282.567 243.347C282.567 243.347 281.432 234.043 279.023 231.469C276.613 228.893 270.141 228.893 270.141 228.893Z" fill="white"/>
<path d="M78.5352 191.693C78.5352 191.693 85.2049 191.139 86.9511 187.859C88.6992 184.58 88.9349 176.358 88.9349 176.358C88.9349 176.358 89.6883 185.218 91.4824 187.645C93.2783 190.072 99.3384 191.224 99.3384 191.224C99.3384 191.224 93.9433 191.628 92.1308 194.045C90.3164 196.463 89.8854 204.898 89.8854 204.898C89.8854 204.898 88.8502 196.398 86.649 194.045C84.4479 191.693 78.5352 191.693 78.5352 191.693Z" fill="white"/>
<path d="M36.6992 202.911C36.6992 202.911 41.3428 202.526 42.5604 200.241C43.7761 197.958 43.9437 192.233 43.9437 192.233C43.9437 192.233 44.4668 198.405 45.7157 200.094C46.9645 201.784 51.1845 202.584 51.1845 202.584C51.1845 202.584 47.4287 202.868 46.167 204.549C44.9034 206.233 44.6031 212.108 44.6031 212.108C44.6031 212.108 43.8811 206.189 42.3485 204.549C40.816 202.911 36.6992 202.911 36.6992 202.911Z" fill="white"/>
<path d="M56.6719 224.109C56.6719 224.109 65.7067 223.36 68.0718 218.918C70.4406 214.473 70.7611 203.337 70.7611 203.337C70.7611 203.337 71.7797 215.34 74.2111 218.627C76.6444 221.915 84.854 223.473 84.854 223.473C84.854 223.473 77.5451 224.02 75.0897 227.296C72.6326 230.572 72.0487 241.997 72.0487 241.997C72.0487 241.997 70.6451 230.485 67.6648 227.296C64.6826 224.109 56.6719 224.109 56.6719 224.109Z" fill="white"/>
</svg>
