<svg width="32" height="35" viewBox="0 0 32 35" fill="none" xmlns="http://www.w3.org/2000/svg">
<path d="M31.9714 19.0208C31.5019 11.5835 25.0846 5.50851 17.1804 4.95623V0.758942C17.1804 0.13303 16.3978 -0.235153 15.8891 0.169848L6.81103 6.94442C6.41973 7.23897 6.41973 7.82806 6.81103 8.12261L15.8891 14.8604C16.3978 15.2654 17.1804 14.8972 17.1804 14.2713V10.2213C22.7368 10.8103 26.9628 15.5599 26.3367 21.0458C25.828 25.5377 21.9542 29.1827 17.1804 29.6613C11.2327 30.2873 6.1067 26.1636 5.59801 20.7881C5.55888 20.3095 5.12845 19.9413 4.61977 19.9413H0.98071C0.393765 19.9413 -0.0366609 20.3831 0.00246873 20.9354C0.589414 28.7777 7.51536 35 16.0065 35C25.1237 35 32.5192 27.7468 31.9714 19.0208Z" fill="#526A99"/>
</svg>
