<svg width="33" height="33" viewBox="0 0 33 33" fill="none" xmlns="http://www.w3.org/2000/svg">
<path d="M18.5328 1.28997L22.0005 8.40722C22.2783 9.13309 22.8331 9.56897 23.6647 9.56897L31.1558 10.7307C32.9594 11.0216 33.6525 13.3451 32.2653 14.6528L26.7162 20.3176C26.3008 20.8994 26.0239 21.6252 26.3008 22.497L27.5496 30.3412C27.8274 32.2297 26.0239 33.6822 24.3589 32.6656L17.562 29.0344C17.0073 28.7435 16.1748 28.7435 15.4816 29.0344L8.68469 32.6656C7.15896 33.5374 5.21691 32.0847 5.49402 30.3412L6.74282 22.497C6.88128 21.7711 6.60436 21.0443 6.18809 20.4635L0.638974 14.7987C-0.609829 13.4911 0.0842386 11.1675 1.74844 10.8766L9.23956 9.71488C9.93276 9.56989 10.4884 9.134 10.9037 8.55312L14.3715 1.43587C15.4819 -0.453575 17.7009 -0.453575 18.5333 1.28997H18.5328Z" fill="white"/>
</svg>
