<svg width="210" height="106" viewBox="0 0 210 106" fill="none" xmlns="http://www.w3.org/2000/svg">
<path d="M105 40.9888C70.3964 40.9888 42.2285 68.3005 42.2285 101.912C42.2285 103.911 43.8896 105.5 45.9116 105.5H164.091C166.115 105.5 167.774 103.91 167.774 101.912C167.776 68.299 139.606 40.9888 105.003 40.9888H105Z" fill="white" stroke="white"/>
<path d="M105 28.1279C107.023 28.1279 108.683 26.5374 108.683 24.5393V4.08858C108.683 2.0887 107.021 0.5 105 0.5C102.976 0.5 101.316 2.09043 101.316 4.08858V24.5393C101.316 26.539 102.976 28.1279 105 28.1279Z" fill="white" stroke="white"/>
<path d="M205.816 98.3223H184.74C182.716 98.3223 181.057 99.9127 181.057 101.911C181.057 103.911 182.718 105.499 184.74 105.499H205.816C207.84 105.499 209.499 103.909 209.499 101.911C209.499 99.9111 207.84 98.3223 205.816 98.3223Z" fill="white" stroke="white"/>
<path d="M25.2596 98.3223H4.18309C2.15931 98.3223 0.5 99.9127 0.5 101.911C0.5 103.911 2.1611 105.499 4.18309 105.499H25.2596C27.2833 105.499 28.9426 103.909 28.9426 101.911C28.9426 99.9111 27.2832 98.3223 25.2596 98.3223Z" fill="white" stroke="white"/>
<path d="M46.007 49.732L46.007 49.732C46.7208 50.4247 47.6753 50.7796 48.6055 50.7796C49.5358 50.7796 50.4903 50.4246 51.2041 49.732L50.8559 49.3732L51.2041 49.732C52.6567 48.3226 52.6619 46.0398 51.2026 44.6472C51.202 44.6466 51.2014 44.6461 51.2009 44.6456L36.3044 30.1913C34.8602 28.79 32.5341 28.785 31.1072 30.1929C29.6562 31.6024 29.6515 33.884 31.1103 35.2762C31.1109 35.2767 31.1115 35.2772 31.112 35.2778L46.007 49.732Z" fill="white" stroke="white"/>
<path d="M161.393 50.7816C162.324 50.7816 163.278 50.4266 163.992 49.734L163.644 49.3751L163.992 49.734L178.892 35.2766C180.344 33.8672 180.349 31.5844 178.89 30.1917C177.446 28.792 175.121 28.7875 173.694 30.1948L158.796 44.6506C157.344 46.06 157.338 48.3427 158.798 49.7354C159.51 50.4273 160.464 50.7816 161.393 50.7816Z" fill="white" stroke="white"/>
<path d="M146.172 12.5589L146.173 12.558C146.941 10.704 146.017 8.62187 144.131 7.88427L144.131 7.88413C142.253 7.15119 140.115 8.0211 139.348 9.86758L131.452 28.814L131.452 28.8149C130.684 30.6687 131.608 32.7526 133.494 33.4888L133.582 33.523H133.588C133.997 33.6659 134.446 33.75 134.865 33.75C136.299 33.75 137.705 32.9248 138.278 31.503L146.172 12.5589Z" fill="white" stroke="white"/>
<path d="M12.8963 61.9479L12.8954 61.9476C11.0173 61.2147 8.87947 62.0846 8.11236 63.9311L8.1122 63.9314C7.34376 65.7854 8.26792 67.8674 10.1535 68.6051C10.1536 68.6051 10.1537 68.6052 10.1538 68.6052L29.68 76.2661L29.6799 76.2662L29.6866 76.2687C30.1165 76.4304 30.5788 76.5277 31.0514 76.5277C32.4861 76.5277 33.8921 75.7023 34.4651 74.2801C35.2314 72.4259 34.308 70.3453 32.423 69.6091C32.4227 69.609 32.4224 69.6089 32.4221 69.6088L12.8963 61.9479Z" fill="white" stroke="white"/>
<path d="M75.2732 34.0061L75.2732 34.0062L75.2811 34.0029C77.1458 33.241 78.0447 31.1347 77.2271 29.2821C77.227 29.2818 77.2269 29.2816 77.2268 29.2814L68.9933 10.4609C68.9932 10.4607 68.9931 10.4605 68.993 10.4603C68.201 8.63644 66.0181 7.78988 64.1621 8.57053C62.2991 9.33331 61.4014 11.4385 62.2186 13.2903C62.2187 13.2905 62.2188 13.2908 62.2189 13.2911L70.4523 32.1115C70.4524 32.1118 70.4526 32.1121 70.4527 32.1124C71.0483 33.4838 72.4278 34.2872 73.8394 34.2872C74.3334 34.2872 74.7975 34.191 75.2732 34.0061Z" fill="white" stroke="white"/>
<path d="M179.814 74.9826L179.815 74.9823L199.21 66.9935C199.211 66.9932 199.212 66.993 199.212 66.9927C201.104 66.229 201.974 64.1202 201.183 62.2759L201.053 61.973H201.034C200.145 60.3582 198.122 59.6475 196.351 60.3833C196.351 60.3834 196.35 60.3835 196.35 60.3836L176.954 68.3728C176.953 68.3728 176.953 68.3729 176.953 68.373C175.089 69.135 174.19 71.2407 175.007 73.0929C175.603 74.4639 176.982 75.2671 178.394 75.2671C178.887 75.2671 179.354 75.1714 179.814 74.9826Z" fill="white" stroke="white"/>
</svg>
